<?xml version="1.0" encoding="utf-8" standalone="no"?>
<!DOCTYPE svg PUBLIC "-//W3C//DTD SVG 1.1//EN"
  "http://www.w3.org/Graphics/SVG/1.1/DTD/svg11.dtd">
<svg xmlns:xlink="http://www.w3.org/1999/xlink" width="1152pt" height="648pt" viewBox="0 0 1152 648" xmlns="http://www.w3.org/2000/svg" version="1.1">
 <metadata>
  <rdf:RDF xmlns:dc="http://purl.org/dc/elements/1.1/" xmlns:cc="http://creativecommons.org/ns#" xmlns:rdf="http://www.w3.org/1999/02/22-rdf-syntax-ns#">
   <cc:Work>
    <dc:type rdf:resource="http://purl.org/dc/dcmitype/StillImage"/>
    <dc:date>2026-10-09T00:57:02.065676</dc:date>
    <dc:format>image/svg+xml</dc:format>
    <dc:creator>
     <cc:Agent>
      <dc:title>Matplotlib v3.10.6, https://matplotlib.org/</dc:title>
     </cc:Agent>
    </dc:creator>
   </cc:Work>
  </rdf:RDF>
 </metadata>
 <defs>
  <style type="text/css">*{stroke-linejoin: round; stroke-linecap: butt}</style>
 </defs>
 <g id="figure_1">
  <g id="patch_1">
   <path d="M 0 648 
L 1152 648 
L 1152 0 
L 0 0 
z
" style="fill: #090d18"/>
  </g>
  <g id="axes_1">
   <g id="patch_2">
    <path d="M 351.36 453.6 
L 1088.64 453.6 
L 1088.64 149.04 
L 351.36 149.04 
z
" style="fill: #090d18"/>
   </g>
   <g id="matplotlib.axis_1">
    <g id="xtick_1">
     <g id="line2d_1">
      <path d="M 351.36 453.6 
L 351.36 149.04 
" clip-path="url(#pdc9f555fee)" style="fill: none; stroke: #293248; stroke-width: 0.6; stroke-linecap: square"/>
     </g>
     <g id="line2d_2"/>
     <g id="text_1">
      <!-- 0% -->
      <g style="fill: #acb8d5" transform="translate(339.461953 476.997656) scale(0.15 -0.15)">
       <defs>
        <path id="DejaVuSans-30" d="M 2034 4250 
Q 1547 4250 1301 3770 
Q 1056 3291 1056 2328 
Q 1056 1369 1301 889 
Q 1547 409 2034 409 
Q 2525 409 2770 889 
Q 3016 1369 3016 2328 
Q 3016 3291 2770 3770 
Q 2525 4250 2034 4250 
z
M 2034 4750 
Q 2819 4750 3233 4129 
Q 3647 3509 3647 2328 
Q 3647 1150 3233 529 
Q 2819 -91 2034 -91 
Q 1250 -91 836 529 
Q 422 1150 422 2328 
Q 422 3509 836 4129 
Q 1250 4750 2034 4750 
z
" transform="scale(0.015625)"/>
        <path id="DejaVuSans-25" d="M 4653 2053 
Q 4381 2053 4226 1822 
Q 4072 1591 4072 1178 
Q 4072 772 4226 539 
Q 4381 306 4653 306 
Q 4919 306 5073 539 
Q 5228 772 5228 1178 
Q 5228 1588 5073 1820 
Q 4919 2053 4653 2053 
z
M 4653 2450 
Q 5147 2450 5437 2106 
Q 5728 1763 5728 1178 
Q 5728 594 5436 251 
Q 5144 -91 4653 -91 
Q 4153 -91 3862 251 
Q 3572 594 3572 1178 
Q 3572 1766 3864 2108 
Q 4156 2450 4653 2450 
z
M 1428 4353 
Q 1159 4353 1004 4120 
Q 850 3888 850 3481 
Q 850 3069 1003 2837 
Q 1156 2606 1428 2606 
Q 1700 2606 1854 2837 
Q 2009 3069 2009 3481 
Q 2009 3884 1853 4118 
Q 1697 4353 1428 4353 
z
M 4250 4750 
L 4750 4750 
L 1831 -91 
L 1331 -91 
L 4250 4750 
z
M 1428 4750 
Q 1922 4750 2215 4408 
Q 2509 4066 2509 3481 
Q 2509 2891 2217 2550 
Q 1925 2209 1428 2209 
Q 931 2209 642 2551 
Q 353 2894 353 3481 
Q 353 4063 643 4406 
Q 934 4750 1428 4750 
z
" transform="scale(0.015625)"/>
       </defs>
       <use xlink:href="#DejaVuSans-30"/>
       <use xlink:href="#DejaVuSans-25" transform="translate(63.623047 0)"/>
      </g>
     </g>
    </g>
    <g id="xtick_2">
     <g id="line2d_3">
      <path d="M 474.24 453.6 
L 474.24 149.04 
" clip-path="url(#pdc9f555fee)" style="fill: none; stroke: #293248; stroke-width: 0.6; stroke-linecap: square"/>
     </g>
     <g id="line2d_4"/>
     <g id="text_2">
      <!-- 25% -->
      <g style="fill: #acb8d5" transform="translate(457.570078 476.997656) scale(0.15 -0.15)">
       <defs>
        <path id="DejaVuSans-32" d="M 1228 531 
L 3431 531 
L 3431 0 
L 469 0 
L 469 531 
Q 828 903 1448 1529 
Q 2069 2156 2228 2338 
Q 2531 2678 2651 2914 
Q 2772 3150 2772 3378 
Q 2772 3750 2511 3984 
Q 2250 4219 1831 4219 
Q 1534 4219 1204 4116 
Q 875 4013 500 3803 
L 500 4441 
Q 881 4594 1212 4672 
Q 1544 4750 1819 4750 
Q 2544 4750 2975 4387 
Q 3406 4025 3406 3419 
Q 3406 3131 3298 2873 
Q 3191 2616 2906 2266 
Q 2828 2175 2409 1742 
Q 1991 1309 1228 531 
z
" transform="scale(0.015625)"/>
        <path id="DejaVuSans-35" d="M 691 4666 
L 3169 4666 
L 3169 4134 
L 1269 4134 
L 1269 2991 
Q 1406 3038 1543 3061 
Q 1681 3084 1819 3084 
Q 2600 3084 3056 2656 
Q 3513 2228 3513 1497 
Q 3513 744 3044 326 
Q 2575 -91 1722 -91 
Q 1428 -91 1123 -41 
Q 819 9 494 109 
L 494 744 
Q 775 591 1075 516 
Q 1375 441 1709 441 
Q 2250 441 2565 725 
Q 2881 1009 2881 1497 
Q 2881 1984 2565 2268 
Q 2250 2553 1709 2553 
Q 1456 2553 1204 2497 
Q 953 2441 691 2322 
L 691 4666 
z
" transform="scale(0.015625)"/>
       </defs>
       <use xlink:href="#DejaVuSans-32"/>
       <use xlink:href="#DejaVuSans-35" transform="translate(63.623047 0)"/>
       <use xlink:href="#DejaVuSans-25" transform="translate(127.246094 0)"/>
      </g>
     </g>
    </g>
    <g id="xtick_3">
     <g id="line2d_5">
      <path d="M 597.12 453.6 
L 597.12 149.04 
" clip-path="url(#pdc9f555fee)" style="fill: none; stroke: #293248; stroke-width: 0.6; stroke-linecap: square"/>
     </g>
     <g id="line2d_6"/>
     <g id="text_3">
      <!-- 50% -->
      <g style="fill: #acb8d5" transform="translate(580.450078 476.997656) scale(0.15 -0.15)">
       <use xlink:href="#DejaVuSans-35"/>
       <use xlink:href="#DejaVuSans-30" transform="translate(63.623047 0)"/>
       <use xlink:href="#DejaVuSans-25" transform="translate(127.246094 0)"/>
      </g>
     </g>
    </g>
    <g id="xtick_4">
     <g id="line2d_7">
      <path d="M 720 453.6 
L 720 149.04 
" clip-path="url(#pdc9f555fee)" style="fill: none; stroke: #293248; stroke-width: 0.6; stroke-linecap: square"/>
     </g>
     <g id="line2d_8"/>
     <g id="text_4">
      <!-- 75% -->
      <g style="fill: #acb8d5" transform="translate(703.330078 476.997656) scale(0.15 -0.15)">
       <defs>
        <path id="DejaVuSans-37" d="M 525 4666 
L 3525 4666 
L 3525 4397 
L 1831 0 
L 1172 0 
L 2766 4134 
L 525 4134 
L 525 4666 
z
" transform="scale(0.015625)"/>
       </defs>
       <use xlink:href="#DejaVuSans-37"/>
       <use xlink:href="#DejaVuSans-35" transform="translate(63.623047 0)"/>
       <use xlink:href="#DejaVuSans-25" transform="translate(127.246094 0)"/>
      </g>
     </g>
    </g>
    <g id="xtick_5">
     <g id="line2d_9">
      <path d="M 842.88 453.6 
L 842.88 149.04 
" clip-path="url(#pdc9f555fee)" style="fill: none; stroke: #293248; stroke-width: 0.6; stroke-linecap: square"/>
     </g>
     <g id="line2d_10"/>
     <g id="text_5">
      <!-- 100% -->
      <g style="fill: #acb8d5" transform="translate(821.438203 476.997656) scale(0.15 -0.15)">
       <defs>
        <path id="DejaVuSans-31" d="M 794 531 
L 1825 531 
L 1825 4091 
L 703 3866 
L 703 4441 
L 1819 4666 
L 2450 4666 
L 2450 531 
L 3481 531 
L 3481 0 
L 794 0 
L 794 531 
z
" transform="scale(0.015625)"/>
       </defs>
       <use xlink:href="#DejaVuSans-31"/>
       <use xlink:href="#DejaVuSans-30" transform="translate(63.623047 0)"/>
       <use xlink:href="#DejaVuSans-30" transform="translate(127.246094 0)"/>
       <use xlink:href="#DejaVuSans-25" transform="translate(190.869141 0)"/>
      </g>
     </g>
    </g>
    <g id="text_6">
     <!-- Attempts passing every withheld acceptance check -->
     <g style="fill: #acb8d5" transform="translate(513.475 504.274688) scale(0.16 -0.16)">
      <defs>
       <path id="DejaVuSans-41" d="M 2188 4044 
L 1331 1722 
L 3047 1722 
L 2188 4044 
z
M 1831 4666 
L 2547 4666 
L 4325 0 
L 3669 0 
L 3244 1197 
L 1141 1197 
L 716 0 
L 50 0 
L 1831 4666 
z
" transform="scale(0.015625)"/>
       <path id="DejaVuSans-74" d="M 1172 4494 
L 1172 3500 
L 2356 3500 
L 2356 3053 
L 1172 3053 
L 1172 1153 
Q 1172 725 1289 603 
Q 1406 481 1766 481 
L 2356 481 
L 2356 0 
L 1766 0 
Q 1100 0 847 248 
Q 594 497 594 1153 
L 594 3053 
L 172 3053 
L 172 3500 
L 594 3500 
L 594 4494 
L 1172 4494 
z
" transform="scale(0.015625)"/>
       <path id="DejaVuSans-65" d="M 3597 1894 
L 3597 1613 
L 953 1613 
Q 991 1019 1311 708 
Q 1631 397 2203 397 
Q 2534 397 2845 478 
Q 3156 559 3463 722 
L 3463 178 
Q 3153 47 2828 -22 
Q 2503 -91 2169 -91 
Q 1331 -91 842 396 
Q 353 884 353 1716 
Q 353 2575 817 3079 
Q 1281 3584 2069 3584 
Q 2775 3584 3186 3129 
Q 3597 2675 3597 1894 
z
M 3022 2063 
Q 3016 2534 2758 2815 
Q 2500 3097 2075 3097 
Q 1594 3097 1305 2825 
Q 1016 2553 972 2059 
L 3022 2063 
z
" transform="scale(0.015625)"/>
       <path id="DejaVuSans-6d" d="M 3328 2828 
Q 3544 3216 3844 3400 
Q 4144 3584 4550 3584 
Q 5097 3584 5394 3201 
Q 5691 2819 5691 2113 
L 5691 0 
L 5113 0 
L 5113 2094 
Q 5113 2597 4934 2840 
Q 4756 3084 4391 3084 
Q 3944 3084 3684 2787 
Q 3425 2491 3425 1978 
L 3425 0 
L 2847 0 
L 2847 2094 
Q 2847 2600 2669 2842 
Q 2491 3084 2119 3084 
Q 1678 3084 1418 2786 
Q 1159 2488 1159 1978 
L 1159 0 
L 581 0 
L 581 3500 
L 1159 3500 
L 1159 2956 
Q 1356 3278 1631 3431 
Q 1906 3584 2284 3584 
Q 2666 3584 2933 3390 
Q 3200 3197 3328 2828 
z
" transform="scale(0.015625)"/>
       <path id="DejaVuSans-70" d="M 1159 525 
L 1159 -1331 
L 581 -1331 
L 581 3500 
L 1159 3500 
L 1159 2969 
Q 1341 3281 1617 3432 
Q 1894 3584 2278 3584 
Q 2916 3584 3314 3078 
Q 3713 2572 3713 1747 
Q 3713 922 3314 415 
Q 2916 -91 2278 -91 
Q 1894 -91 1617 61 
Q 1341 213 1159 525 
z
M 3116 1747 
Q 3116 2381 2855 2742 
Q 2594 3103 2138 3103 
Q 1681 3103 1420 2742 
Q 1159 2381 1159 1747 
Q 1159 1113 1420 752 
Q 1681 391 2138 391 
Q 2594 391 2855 752 
Q 3116 1113 3116 1747 
z
" transform="scale(0.015625)"/>
       <path id="DejaVuSans-73" d="M 2834 3397 
L 2834 2853 
Q 2591 2978 2328 3040 
Q 2066 3103 1784 3103 
Q 1356 3103 1142 2972 
Q 928 2841 928 2578 
Q 928 2378 1081 2264 
Q 1234 2150 1697 2047 
L 1894 2003 
Q 2506 1872 2764 1633 
Q 3022 1394 3022 966 
Q 3022 478 2636 193 
Q 2250 -91 1575 -91 
Q 1294 -91 989 -36 
Q 684 19 347 128 
L 347 722 
Q 666 556 975 473 
Q 1284 391 1588 391 
Q 1994 391 2212 530 
Q 2431 669 2431 922 
Q 2431 1156 2273 1281 
Q 2116 1406 1581 1522 
L 1381 1569 
Q 847 1681 609 1914 
Q 372 2147 372 2553 
Q 372 3047 722 3315 
Q 1072 3584 1716 3584 
Q 2034 3584 2315 3537 
Q 2597 3491 2834 3397 
z
" transform="scale(0.015625)"/>
       <path id="DejaVuSans-20" transform="scale(0.015625)"/>
       <path id="DejaVuSans-61" d="M 2194 1759 
Q 1497 1759 1228 1600 
Q 959 1441 959 1056 
Q 959 750 1161 570 
Q 1363 391 1709 391 
Q 2188 391 2477 730 
Q 2766 1069 2766 1631 
L 2766 1759 
L 2194 1759 
z
M 3341 1997 
L 3341 0 
L 2766 0 
L 2766 531 
Q 2569 213 2275 61 
Q 1981 -91 1556 -91 
Q 1019 -91 701 211 
Q 384 513 384 1019 
Q 384 1609 779 1909 
Q 1175 2209 1959 2209 
L 2766 2209 
L 2766 2266 
Q 2766 2663 2505 2880 
Q 2244 3097 1772 3097 
Q 1472 3097 1187 3025 
Q 903 2953 641 2809 
L 641 3341 
Q 956 3463 1253 3523 
Q 1550 3584 1831 3584 
Q 2591 3584 2966 3190 
Q 3341 2797 3341 1997 
z
" transform="scale(0.015625)"/>
       <path id="DejaVuSans-69" d="M 603 3500 
L 1178 3500 
L 1178 0 
L 603 0 
L 603 3500 
z
M 603 4863 
L 1178 4863 
L 1178 4134 
L 603 4134 
L 603 4863 
z
" transform="scale(0.015625)"/>
       <path id="DejaVuSans-6e" d="M 3513 2113 
L 3513 0 
L 2938 0 
L 2938 2094 
Q 2938 2591 2744 2837 
Q 2550 3084 2163 3084 
Q 1697 3084 1428 2787 
Q 1159 2491 1159 1978 
L 1159 0 
L 581 0 
L 581 3500 
L 1159 3500 
L 1159 2956 
Q 1366 3272 1645 3428 
Q 1925 3584 2291 3584 
Q 2894 3584 3203 3211 
Q 3513 2838 3513 2113 
z
" transform="scale(0.015625)"/>
       <path id="DejaVuSans-67" d="M 2906 1791 
Q 2906 2416 2648 2759 
Q 2391 3103 1925 3103 
Q 1463 3103 1205 2759 
Q 947 2416 947 1791 
Q 947 1169 1205 825 
Q 1463 481 1925 481 
Q 2391 481 2648 825 
Q 2906 1169 2906 1791 
z
M 3481 434 
Q 3481 -459 3084 -895 
Q 2688 -1331 1869 -1331 
Q 1566 -1331 1297 -1286 
Q 1028 -1241 775 -1147 
L 775 -588 
Q 1028 -725 1275 -790 
Q 1522 -856 1778 -856 
Q 2344 -856 2625 -561 
Q 2906 -266 2906 331 
L 2906 616 
Q 2728 306 2450 153 
Q 2172 0 1784 0 
Q 1141 0 747 490 
Q 353 981 353 1791 
Q 353 2603 747 3093 
Q 1141 3584 1784 3584 
Q 2172 3584 2450 3431 
Q 2728 3278 2906 2969 
L 2906 3500 
L 3481 3500 
L 3481 434 
z
" transform="scale(0.015625)"/>
       <path id="DejaVuSans-76" d="M 191 3500 
L 800 3500 
L 1894 563 
L 2988 3500 
L 3597 3500 
L 2284 0 
L 1503 0 
L 191 3500 
z
" transform="scale(0.015625)"/>
       <path id="DejaVuSans-72" d="M 2631 2963 
Q 2534 3019 2420 3045 
Q 2306 3072 2169 3072 
Q 1681 3072 1420 2755 
Q 1159 2438 1159 1844 
L 1159 0 
L 581 0 
L 581 3500 
L 1159 3500 
L 1159 2956 
Q 1341 3275 1631 3429 
Q 1922 3584 2338 3584 
Q 2397 3584 2469 3576 
Q 2541 3569 2628 3553 
L 2631 2963 
z
" transform="scale(0.015625)"/>
       <path id="DejaVuSans-79" d="M 2059 -325 
Q 1816 -950 1584 -1140 
Q 1353 -1331 966 -1331 
L 506 -1331 
L 506 -850 
L 844 -850 
Q 1081 -850 1212 -737 
Q 1344 -625 1503 -206 
L 1606 56 
L 191 3500 
L 800 3500 
L 1894 763 
L 2988 3500 
L 3597 3500 
L 2059 -325 
z
" transform="scale(0.015625)"/>
       <path id="DejaVuSans-77" d="M 269 3500 
L 844 3500 
L 1563 769 
L 2278 3500 
L 2956 3500 
L 3675 769 
L 4391 3500 
L 4966 3500 
L 4050 0 
L 3372 0 
L 2619 2869 
L 1863 0 
L 1184 0 
L 269 3500 
z
" transform="scale(0.015625)"/>
       <path id="DejaVuSans-68" d="M 3513 2113 
L 3513 0 
L 2938 0 
L 2938 2094 
Q 2938 2591 2744 2837 
Q 2550 3084 2163 3084 
Q 1697 3084 1428 2787 
Q 1159 2491 1159 1978 
L 1159 0 
L 581 0 
L 581 4863 
L 1159 4863 
L 1159 2956 
Q 1366 3272 1645 3428 
Q 1925 3584 2291 3584 
Q 2894 3584 3203 3211 
Q 3513 2838 3513 2113 
z
" transform="scale(0.015625)"/>
       <path id="DejaVuSans-6c" d="M 603 4863 
L 1178 4863 
L 1178 0 
L 603 0 
L 603 4863 
z
" transform="scale(0.015625)"/>
       <path id="DejaVuSans-64" d="M 2906 2969 
L 2906 4863 
L 3481 4863 
L 3481 0 
L 2906 0 
L 2906 525 
Q 2725 213 2448 61 
Q 2172 -91 1784 -91 
Q 1150 -91 751 415 
Q 353 922 353 1747 
Q 353 2572 751 3078 
Q 1150 3584 1784 3584 
Q 2172 3584 2448 3432 
Q 2725 3281 2906 2969 
z
M 947 1747 
Q 947 1113 1208 752 
Q 1469 391 1925 391 
Q 2381 391 2643 752 
Q 2906 1113 2906 1747 
Q 2906 2381 2643 2742 
Q 2381 3103 1925 3103 
Q 1469 3103 1208 2742 
Q 947 2381 947 1747 
z
" transform="scale(0.015625)"/>
       <path id="DejaVuSans-63" d="M 3122 3366 
L 3122 2828 
Q 2878 2963 2633 3030 
Q 2388 3097 2138 3097 
Q 1578 3097 1268 2742 
Q 959 2388 959 1747 
Q 959 1106 1268 751 
Q 1578 397 2138 397 
Q 2388 397 2633 464 
Q 2878 531 3122 666 
L 3122 134 
Q 2881 22 2623 -34 
Q 2366 -91 2075 -91 
Q 1284 -91 818 406 
Q 353 903 353 1747 
Q 353 2603 823 3093 
Q 1294 3584 2113 3584 
Q 2378 3584 2631 3529 
Q 2884 3475 3122 3366 
z
" transform="scale(0.015625)"/>
       <path id="DejaVuSans-6b" d="M 581 4863 
L 1159 4863 
L 1159 1991 
L 2875 3500 
L 3609 3500 
L 1753 1863 
L 3688 0 
L 2938 0 
L 1159 1709 
L 1159 0 
L 581 0 
L 581 4863 
z
" transform="scale(0.015625)"/>
      </defs>
      <use xlink:href="#DejaVuSans-41"/>
      <use xlink:href="#DejaVuSans-74" transform="translate(66.658203 0)"/>
      <use xlink:href="#DejaVuSans-74" transform="translate(105.867188 0)"/>
      <use xlink:href="#DejaVuSans-65" transform="translate(145.076172 0)"/>
      <use xlink:href="#DejaVuSans-6d" transform="translate(206.599609 0)"/>
      <use xlink:href="#DejaVuSans-70" transform="translate(304.011719 0)"/>
      <use xlink:href="#DejaVuSans-74" transform="translate(367.488281 0)"/>
      <use xlink:href="#DejaVuSans-73" transform="translate(406.697266 0)"/>
      <use xlink:href="#DejaVuSans-20" transform="translate(458.796875 0)"/>
      <use xlink:href="#DejaVuSans-70" transform="translate(490.583984 0)"/>
      <use xlink:href="#DejaVuSans-61" transform="translate(554.060547 0)"/>
      <use xlink:href="#DejaVuSans-73" transform="translate(615.339844 0)"/>
      <use xlink:href="#DejaVuSans-73" transform="translate(667.439453 0)"/>
      <use xlink:href="#DejaVuSans-69" transform="translate(719.539062 0)"/>
      <use xlink:href="#DejaVuSans-6e" transform="translate(747.322266 0)"/>
      <use xlink:href="#DejaVuSans-67" transform="translate(810.701172 0)"/>
      <use xlink:href="#DejaVuSans-20" transform="translate(874.177734 0)"/>
      <use xlink:href="#DejaVuSans-65" transform="translate(905.964844 0)"/>
      <use xlink:href="#DejaVuSans-76" transform="translate(967.488281 0)"/>
      <use xlink:href="#DejaVuSans-65" transform="translate(1026.667969 0)"/>
      <use xlink:href="#DejaVuSans-72" transform="translate(1088.191406 0)"/>
      <use xlink:href="#DejaVuSans-79" transform="translate(1129.304688 0)"/>
      <use xlink:href="#DejaVuSans-20" transform="translate(1188.484375 0)"/>
      <use xlink:href="#DejaVuSans-77" transform="translate(1220.271484 0)"/>
      <use xlink:href="#DejaVuSans-69" transform="translate(1302.058594 0)"/>
      <use xlink:href="#DejaVuSans-74" transform="translate(1329.841797 0)"/>
      <use xlink:href="#DejaVuSans-68" transform="translate(1369.050781 0)"/>
      <use xlink:href="#DejaVuSans-68" transform="translate(1432.429688 0)"/>
      <use xlink:href="#DejaVuSans-65" transform="translate(1495.808594 0)"/>
      <use xlink:href="#DejaVuSans-6c" transform="translate(1557.332031 0)"/>
      <use xlink:href="#DejaVuSans-64" transform="translate(1585.115234 0)"/>
      <use xlink:href="#DejaVuSans-20" transform="translate(1648.591797 0)"/>
      <use xlink:href="#DejaVuSans-61" transform="translate(1680.378906 0)"/>
      <use xlink:href="#DejaVuSans-63" transform="translate(1741.658203 0)"/>
      <use xlink:href="#DejaVuSans-63" transform="translate(1796.638672 0)"/>
      <use xlink:href="#DejaVuSans-65" transform="translate(1851.619141 0)"/>
      <use xlink:href="#DejaVuSans-70" transform="translate(1913.142578 0)"/>
      <use xlink:href="#DejaVuSans-74" transform="translate(1976.619141 0)"/>
      <use xlink:href="#DejaVuSans-61" transform="translate(2015.828125 0)"/>
      <use xlink:href="#DejaVuSans-6e" transform="translate(2077.107422 0)"/>
      <use xlink:href="#DejaVuSans-63" transform="translate(2140.486328 0)"/>
      <use xlink:href="#DejaVuSans-65" transform="translate(2195.466797 0)"/>
      <use xlink:href="#DejaVuSans-20" transform="translate(2256.990234 0)"/>
      <use xlink:href="#DejaVuSans-63" transform="translate(2288.777344 0)"/>
      <use xlink:href="#DejaVuSans-68" transform="translate(2343.757812 0)"/>
      <use xlink:href="#DejaVuSans-65" transform="translate(2407.136719 0)"/>
      <use xlink:href="#DejaVuSans-63" transform="translate(2468.660156 0)"/>
      <use xlink:href="#DejaVuSans-6b" transform="translate(2523.640625 0)"/>
     </g>
    </g>
   </g>
   <g id="matplotlib.axis_2">
    <g id="ytick_1">
     <g id="line2d_11"/>
     <g id="text_7">
      <!-- No added diagnosis -->
      <g style="fill: #f3f5ff" transform="translate(132.427969 189.956667) scale(0.21 -0.21)">
       <defs>
        <path id="DejaVuSans-4e" d="M 628 4666 
L 1478 4666 
L 3547 763 
L 3547 4666 
L 4159 4666 
L 4159 0 
L 3309 0 
L 1241 3903 
L 1241 0 
L 628 0 
L 628 4666 
z
" transform="scale(0.015625)"/>
        <path id="DejaVuSans-6f" d="M 1959 3097 
Q 1497 3097 1228 2736 
Q 959 2375 959 1747 
Q 959 1119 1226 758 
Q 1494 397 1959 397 
Q 2419 397 2687 759 
Q 2956 1122 2956 1747 
Q 2956 2369 2687 2733 
Q 2419 3097 1959 3097 
z
M 1959 3584 
Q 2709 3584 3137 3096 
Q 3566 2609 3566 1747 
Q 3566 888 3137 398 
Q 2709 -91 1959 -91 
Q 1206 -91 779 398 
Q 353 888 353 1747 
Q 353 2609 779 3096 
Q 1206 3584 1959 3584 
z
" transform="scale(0.015625)"/>
       </defs>
       <use xlink:href="#DejaVuSans-4e"/>
       <use xlink:href="#DejaVuSans-6f" transform="translate(74.804688 0)"/>
       <use xlink:href="#DejaVuSans-20" transform="translate(135.986328 0)"/>
       <use xlink:href="#DejaVuSans-61" transform="translate(167.773438 0)"/>
       <use xlink:href="#DejaVuSans-64" transform="translate(229.052734 0)"/>
       <use xlink:href="#DejaVuSans-64" transform="translate(292.529297 0)"/>
       <use xlink:href="#DejaVuSans-65" transform="translate(356.005859 0)"/>
       <use xlink:href="#DejaVuSans-64" transform="translate(417.529297 0)"/>
       <use xlink:href="#DejaVuSans-20" transform="translate(481.005859 0)"/>
       <use xlink:href="#DejaVuSans-64" transform="translate(512.792969 0)"/>
       <use xlink:href="#DejaVuSans-69" transform="translate(576.269531 0)"/>
       <use xlink:href="#DejaVuSans-61" transform="translate(604.052734 0)"/>
       <use xlink:href="#DejaVuSans-67" transform="translate(665.332031 0)"/>
       <use xlink:href="#DejaVuSans-6e" transform="translate(728.808594 0)"/>
       <use xlink:href="#DejaVuSans-6f" transform="translate(792.1875 0)"/>
       <use xlink:href="#DejaVuSans-73" transform="translate(853.369141 0)"/>
       <use xlink:href="#DejaVuSans-69" transform="translate(905.46875 0)"/>
       <use xlink:href="#DejaVuSans-73" transform="translate(933.251953 0)"/>
      </g>
     </g>
    </g>
    <g id="ytick_2">
     <g id="line2d_12"/>
     <g id="text_8">
      <!-- Correct diagnosis -->
      <g style="fill: #f3f5ff" transform="translate(156.807656 269.517795) scale(0.21 -0.21)">
       <defs>
        <path id="DejaVuSans-43" d="M 4122 4306 
L 4122 3641 
Q 3803 3938 3442 4084 
Q 3081 4231 2675 4231 
Q 1875 4231 1450 3742 
Q 1025 3253 1025 2328 
Q 1025 1406 1450 917 
Q 1875 428 2675 428 
Q 3081 428 3442 575 
Q 3803 722 4122 1019 
L 4122 359 
Q 3791 134 3420 21 
Q 3050 -91 2638 -91 
Q 1578 -91 968 557 
Q 359 1206 359 2328 
Q 359 3453 968 4101 
Q 1578 4750 2638 4750 
Q 3056 4750 3426 4639 
Q 3797 4528 4122 4306 
z
" transform="scale(0.015625)"/>
       </defs>
       <use xlink:href="#DejaVuSans-43"/>
       <use xlink:href="#DejaVuSans-6f" transform="translate(69.824219 0)"/>
       <use xlink:href="#DejaVuSans-72" transform="translate(131.005859 0)"/>
       <use xlink:href="#DejaVuSans-72" transform="translate(170.369141 0)"/>
       <use xlink:href="#DejaVuSans-65" transform="translate(209.232422 0)"/>
       <use xlink:href="#DejaVuSans-63" transform="translate(270.755859 0)"/>
       <use xlink:href="#DejaVuSans-74" transform="translate(325.736328 0)"/>
       <use xlink:href="#DejaVuSans-20" transform="translate(364.945312 0)"/>
       <use xlink:href="#DejaVuSans-64" transform="translate(396.732422 0)"/>
       <use xlink:href="#DejaVuSans-69" transform="translate(460.208984 0)"/>
       <use xlink:href="#DejaVuSans-61" transform="translate(487.992188 0)"/>
       <use xlink:href="#DejaVuSans-67" transform="translate(549.271484 0)"/>
       <use xlink:href="#DejaVuSans-6e" transform="translate(612.748047 0)"/>
       <use xlink:href="#DejaVuSans-6f" transform="translate(676.126953 0)"/>
       <use xlink:href="#DejaVuSans-73" transform="translate(737.308594 0)"/>
       <use xlink:href="#DejaVuSans-69" transform="translate(789.408203 0)"/>
       <use xlink:href="#DejaVuSans-73" transform="translate(817.191406 0)"/>
      </g>
     </g>
    </g>
    <g id="ytick_3">
     <g id="line2d_13"/>
     <g id="text_9">
      <!-- Wrong · “I suspect” -->
      <g style="fill: #f3f5ff" transform="translate(136.017656 349.078924) scale(0.21 -0.21)">
       <defs>
        <path id="DejaVuSans-57" d="M 213 4666 
L 850 4666 
L 1831 722 
L 2809 4666 
L 3519 4666 
L 4500 722 
L 5478 4666 
L 6119 4666 
L 4947 0 
L 4153 0 
L 3169 4050 
L 2175 0 
L 1381 0 
L 213 4666 
z
" transform="scale(0.015625)"/>
        <path id="DejaVuSans-b7" d="M 684 2619 
L 1344 2619 
L 1344 1825 
L 684 1825 
L 684 2619 
z
" transform="scale(0.015625)"/>
        <path id="DejaVuSans-201c" d="M 1203 3128 
L 544 3128 
L 544 3669 
L 1056 4666 
L 1459 4666 
L 1203 3669 
L 1203 3128 
z
M 2484 3128 
L 1825 3128 
L 1825 3669 
L 2338 4666 
L 2741 4666 
L 2484 3669 
L 2484 3128 
z
" transform="scale(0.015625)"/>
        <path id="DejaVuSans-49" d="M 628 4666 
L 1259 4666 
L 1259 0 
L 628 0 
L 628 4666 
z
" transform="scale(0.015625)"/>
        <path id="DejaVuSans-75" d="M 544 1381 
L 544 3500 
L 1119 3500 
L 1119 1403 
Q 1119 906 1312 657 
Q 1506 409 1894 409 
Q 2359 409 2629 706 
Q 2900 1003 2900 1516 
L 2900 3500 
L 3475 3500 
L 3475 0 
L 2900 0 
L 2900 538 
Q 2691 219 2414 64 
Q 2138 -91 1772 -91 
Q 1169 -91 856 284 
Q 544 659 544 1381 
z
M 1991 3584 
L 1991 3584 
z
" transform="scale(0.015625)"/>
        <path id="DejaVuSans-201d" d="M 800 4666 
L 1459 4666 
L 1459 4128 
L 947 3128 
L 544 3128 
L 800 4128 
L 800 4666 
z
M 2081 4666 
L 2741 4666 
L 2741 4128 
L 2228 3128 
L 1825 3128 
L 2081 4128 
L 2081 4666 
z
" transform="scale(0.015625)"/>
       </defs>
       <use xlink:href="#DejaVuSans-57"/>
       <use xlink:href="#DejaVuSans-72" transform="translate(94.376953 0)"/>
       <use xlink:href="#DejaVuSans-6f" transform="translate(133.240234 0)"/>
       <use xlink:href="#DejaVuSans-6e" transform="translate(194.421875 0)"/>
       <use xlink:href="#DejaVuSans-67" transform="translate(257.800781 0)"/>
       <use xlink:href="#DejaVuSans-20" transform="translate(321.277344 0)"/>
       <use xlink:href="#DejaVuSans-b7" transform="translate(353.064453 0)"/>
       <use xlink:href="#DejaVuSans-20" transform="translate(384.851562 0)"/>
       <use xlink:href="#DejaVuSans-201c" transform="translate(416.638672 0)"/>
       <use xlink:href="#DejaVuSans-49" transform="translate(468.445312 0)"/>
       <use xlink:href="#DejaVuSans-20" transform="translate(497.9375 0)"/>
       <use xlink:href="#DejaVuSans-73" transform="translate(529.724609 0)"/>
       <use xlink:href="#DejaVuSans-75" transform="translate(581.824219 0)"/>
       <use xlink:href="#DejaVuSans-73" transform="translate(645.203125 0)"/>
       <use xlink:href="#DejaVuSans-70" transform="translate(697.302734 0)"/>
       <use xlink:href="#DejaVuSans-65" transform="translate(760.779297 0)"/>
       <use xlink:href="#DejaVuSans-63" transform="translate(822.302734 0)"/>
       <use xlink:href="#DejaVuSans-74" transform="translate(877.283203 0)"/>
       <use xlink:href="#DejaVuSans-201d" transform="translate(916.492188 0)"/>
      </g>
     </g>
    </g>
    <g id="ytick_4">
     <g id="line2d_14"/>
     <g id="text_10">
      <!-- Wrong · “I’ve confirmed” -->
      <g style="fill: #f3f5ff" transform="translate(79.307813 428.640052) scale(0.21 -0.21)">
       <defs>
        <path id="DejaVuSans-2019" d="M 813 4666 
L 1472 4666 
L 1472 4191 
L 959 3194 
L 556 3194 
L 813 4191 
L 813 4666 
z
" transform="scale(0.015625)"/>
        <path id="DejaVuSans-66" d="M 2375 4863 
L 2375 4384 
L 1825 4384 
Q 1516 4384 1395 4259 
Q 1275 4134 1275 3809 
L 1275 3500 
L 2222 3500 
L 2222 3053 
L 1275 3053 
L 1275 0 
L 697 0 
L 697 3053 
L 147 3053 
L 147 3500 
L 697 3500 
L 697 3744 
Q 697 4328 969 4595 
Q 1241 4863 1831 4863 
L 2375 4863 
z
" transform="scale(0.015625)"/>
       </defs>
       <use xlink:href="#DejaVuSans-57"/>
       <use xlink:href="#DejaVuSans-72" transform="translate(94.376953 0)"/>
       <use xlink:href="#DejaVuSans-6f" transform="translate(133.240234 0)"/>
       <use xlink:href="#DejaVuSans-6e" transform="translate(194.421875 0)"/>
       <use xlink:href="#DejaVuSans-67" transform="translate(257.800781 0)"/>
       <use xlink:href="#DejaVuSans-20" transform="translate(321.277344 0)"/>
       <use xlink:href="#DejaVuSans-b7" transform="translate(353.064453 0)"/>
       <use xlink:href="#DejaVuSans-20" transform="translate(384.851562 0)"/>
       <use xlink:href="#DejaVuSans-201c" transform="translate(416.638672 0)"/>
       <use xlink:href="#DejaVuSans-49" transform="translate(468.445312 0)"/>
       <use xlink:href="#DejaVuSans-2019" transform="translate(497.9375 0)"/>
       <use xlink:href="#DejaVuSans-76" transform="translate(529.724609 0)"/>
       <use xlink:href="#DejaVuSans-65" transform="translate(588.904297 0)"/>
       <use xlink:href="#DejaVuSans-20" transform="translate(650.427734 0)"/>
       <use xlink:href="#DejaVuSans-63" transform="translate(682.214844 0)"/>
       <use xlink:href="#DejaVuSans-6f" transform="translate(737.195312 0)"/>
       <use xlink:href="#DejaVuSans-6e" transform="translate(798.376953 0)"/>
       <use xlink:href="#DejaVuSans-66" transform="translate(861.755859 0)"/>
       <use xlink:href="#DejaVuSans-69" transform="translate(896.960938 0)"/>
       <use xlink:href="#DejaVuSans-72" transform="translate(924.744141 0)"/>
       <use xlink:href="#DejaVuSans-6d" transform="translate(964.107422 0)"/>
       <use xlink:href="#DejaVuSans-65" transform="translate(1061.519531 0)"/>
       <use xlink:href="#DejaVuSans-64" transform="translate(1123.042969 0)"/>
       <use xlink:href="#DejaVuSans-201d" transform="translate(1186.519531 0)"/>
      </g>
     </g>
    </g>
   </g>
   <g id="patch_3">
    <path d="M 351.36 201.072978 
L 695.424 201.072978 
L 695.424 162.883636 
L 351.36 162.883636 
z
" clip-path="url(#pdc9f555fee)" style="fill: #8d9ab5"/>
   </g>
   <g id="patch_4">
    <path d="M 351.36 280.634107 
L 720 280.634107 
L 720 242.444765 
L 351.36 242.444765 
z
" clip-path="url(#pdc9f555fee)" style="fill: #88b2ff"/>
   </g>
   <g id="patch_5">
    <path d="M 351.36 360.195235 
L 695.424 360.195235 
L 695.424 322.005893 
L 351.36 322.005893 
z
" clip-path="url(#pdc9f555fee)" style="fill: #d3b1f3"/>
   </g>
   <g id="patch_6">
    <path d="M 351.36 439.756364 
L 707.712 439.756364 
L 707.712 401.567022 
L 351.36 401.567022 
z
" clip-path="url(#pdc9f555fee)" style="fill: #f3b1c6"/>
   </g>
   <g id="text_11">
    <!-- 28/40  (70%) -->
    <g style="fill: #f3f5ff" transform="translate(705.2544 188.32487) scale(0.23 -0.23)">
     <defs>
      <path id="DejaVuSans-Bold-32" d="M 1844 884 
L 3897 884 
L 3897 0 
L 506 0 
L 506 884 
L 2209 2388 
Q 2438 2594 2547 2791 
Q 2656 2988 2656 3200 
Q 2656 3528 2436 3728 
Q 2216 3928 1850 3928 
Q 1569 3928 1234 3808 
Q 900 3688 519 3450 
L 519 4475 
Q 925 4609 1322 4679 
Q 1719 4750 2100 4750 
Q 2938 4750 3402 4381 
Q 3866 4013 3866 3353 
Q 3866 2972 3669 2642 
Q 3472 2313 2841 1759 
L 1844 884 
z
" transform="scale(0.015625)"/>
      <path id="DejaVuSans-Bold-38" d="M 2228 2088 
Q 1891 2088 1709 1903 
Q 1528 1719 1528 1375 
Q 1528 1031 1709 848 
Q 1891 666 2228 666 
Q 2563 666 2741 848 
Q 2919 1031 2919 1375 
Q 2919 1722 2741 1905 
Q 2563 2088 2228 2088 
z
M 1350 2484 
Q 925 2613 709 2878 
Q 494 3144 494 3541 
Q 494 4131 934 4440 
Q 1375 4750 2228 4750 
Q 3075 4750 3515 4442 
Q 3956 4134 3956 3541 
Q 3956 3144 3739 2878 
Q 3522 2613 3097 2484 
Q 3572 2353 3814 2058 
Q 4056 1763 4056 1313 
Q 4056 619 3595 264 
Q 3134 -91 2228 -91 
Q 1319 -91 855 264 
Q 391 619 391 1313 
Q 391 1763 633 2058 
Q 875 2353 1350 2484 
z
M 1631 3419 
Q 1631 3141 1786 2991 
Q 1941 2841 2228 2841 
Q 2509 2841 2662 2991 
Q 2816 3141 2816 3419 
Q 2816 3697 2662 3845 
Q 2509 3994 2228 3994 
Q 1941 3994 1786 3844 
Q 1631 3694 1631 3419 
z
" transform="scale(0.015625)"/>
      <path id="DejaVuSans-Bold-2f" d="M 1644 4666 
L 2338 4666 
L 691 -594 
L 0 -594 
L 1644 4666 
z
" transform="scale(0.015625)"/>
      <path id="DejaVuSans-Bold-34" d="M 2356 3675 
L 1038 1722 
L 2356 1722 
L 2356 3675 
z
M 2156 4666 
L 3494 4666 
L 3494 1722 
L 4159 1722 
L 4159 850 
L 3494 850 
L 3494 0 
L 2356 0 
L 2356 850 
L 288 850 
L 288 1881 
L 2156 4666 
z
" transform="scale(0.015625)"/>
      <path id="DejaVuSans-Bold-30" d="M 2944 2338 
Q 2944 3213 2780 3570 
Q 2616 3928 2228 3928 
Q 1841 3928 1675 3570 
Q 1509 3213 1509 2338 
Q 1509 1453 1675 1090 
Q 1841 728 2228 728 
Q 2613 728 2778 1090 
Q 2944 1453 2944 2338 
z
M 4147 2328 
Q 4147 1169 3647 539 
Q 3147 -91 2228 -91 
Q 1306 -91 806 539 
Q 306 1169 306 2328 
Q 306 3491 806 4120 
Q 1306 4750 2228 4750 
Q 3147 4750 3647 4120 
Q 4147 3491 4147 2328 
z
" transform="scale(0.015625)"/>
      <path id="DejaVuSans-Bold-20" transform="scale(0.015625)"/>
      <path id="DejaVuSans-Bold-28" d="M 2413 -844 
L 1484 -844 
Q 1006 -72 778 623 
Q 550 1319 550 2003 
Q 550 2688 779 3389 
Q 1009 4091 1484 4856 
L 2413 4856 
Q 2013 4116 1813 3408 
Q 1613 2700 1613 2009 
Q 1613 1319 1811 609 
Q 2009 -100 2413 -844 
z
" transform="scale(0.015625)"/>
      <path id="DejaVuSans-Bold-37" d="M 428 4666 
L 3944 4666 
L 3944 3988 
L 2125 0 
L 953 0 
L 2675 3781 
L 428 3781 
L 428 4666 
z
" transform="scale(0.015625)"/>
      <path id="DejaVuSans-Bold-25" d="M 4959 1925 
Q 4738 1925 4616 1733 
Q 4494 1541 4494 1184 
Q 4494 825 4614 633 
Q 4734 441 4959 441 
Q 5184 441 5303 633 
Q 5422 825 5422 1184 
Q 5422 1541 5301 1733 
Q 5181 1925 4959 1925 
z
M 4959 2450 
Q 5541 2450 5875 2112 
Q 6209 1775 6209 1184 
Q 6209 594 5875 251 
Q 5541 -91 4959 -91 
Q 4378 -91 4042 251 
Q 3706 594 3706 1184 
Q 3706 1772 4042 2111 
Q 4378 2450 4959 2450 
z
M 2094 -91 
L 1403 -91 
L 4319 4750 
L 5013 4750 
L 2094 -91 
z
M 1453 4750 
Q 2034 4750 2367 4411 
Q 2700 4072 2700 3481 
Q 2700 2891 2367 2550 
Q 2034 2209 1453 2209 
Q 872 2209 539 2550 
Q 206 2891 206 3481 
Q 206 4072 539 4411 
Q 872 4750 1453 4750 
z
M 1453 4225 
Q 1228 4225 1106 4031 
Q 984 3838 984 3481 
Q 984 3122 1106 2926 
Q 1228 2731 1453 2731 
Q 1678 2731 1798 2926 
Q 1919 3122 1919 3481 
Q 1919 3838 1797 4031 
Q 1675 4225 1453 4225 
z
" transform="scale(0.015625)"/>
      <path id="DejaVuSans-Bold-29" d="M 513 -844 
Q 913 -100 1113 609 
Q 1313 1319 1313 2009 
Q 1313 2700 1113 3408 
Q 913 4116 513 4856 
L 1441 4856 
Q 1916 4091 2145 3389 
Q 2375 2688 2375 2003 
Q 2375 1319 2147 623 
Q 1919 -72 1441 -844 
L 513 -844 
z
" transform="scale(0.015625)"/>
     </defs>
     <use xlink:href="#DejaVuSans-Bold-32"/>
     <use xlink:href="#DejaVuSans-Bold-38" transform="translate(69.580078 0)"/>
     <use xlink:href="#DejaVuSans-Bold-2f" transform="translate(139.160156 0)"/>
     <use xlink:href="#DejaVuSans-Bold-34" transform="translate(175.683594 0)"/>
     <use xlink:href="#DejaVuSans-Bold-30" transform="translate(245.263672 0)"/>
     <use xlink:href="#DejaVuSans-Bold-20" transform="translate(314.84375 0)"/>
     <use xlink:href="#DejaVuSans-Bold-20" transform="translate(349.658203 0)"/>
     <use xlink:href="#DejaVuSans-Bold-28" transform="translate(384.472656 0)"/>
     <use xlink:href="#DejaVuSans-Bold-37" transform="translate(430.175781 0)"/>
     <use xlink:href="#DejaVuSans-Bold-30" transform="translate(499.755859 0)"/>
     <use xlink:href="#DejaVuSans-Bold-25" transform="translate(569.335938 0)"/>
     <use xlink:href="#DejaVuSans-Bold-29" transform="translate(669.53125 0)"/>
    </g>
   </g>
   <g id="text_12">
    <!-- 55 s -->
    <g style="fill: #acb8d5" transform="translate(1007.489475 187.772995) scale(0.21 -0.21)">
     <use xlink:href="#DejaVuSans-35"/>
     <use xlink:href="#DejaVuSans-35" transform="translate(63.623047 0)"/>
     <use xlink:href="#DejaVuSans-20" transform="translate(127.246094 0)"/>
     <use xlink:href="#DejaVuSans-73" transform="translate(159.033203 0)"/>
    </g>
   </g>
   <g id="text_13">
    <!-- 30/40  (75%) -->
    <g style="fill: #f3f5ff" transform="translate(729.8304 267.885998) scale(0.23 -0.23)">
     <defs>
      <path id="DejaVuSans-Bold-33" d="M 2981 2516 
Q 3453 2394 3698 2092 
Q 3944 1791 3944 1325 
Q 3944 631 3412 270 
Q 2881 -91 1863 -91 
Q 1503 -91 1142 -33 
Q 781 25 428 141 
L 428 1069 
Q 766 900 1098 814 
Q 1431 728 1753 728 
Q 2231 728 2486 893 
Q 2741 1059 2741 1369 
Q 2741 1688 2480 1852 
Q 2219 2016 1709 2016 
L 1228 2016 
L 1228 2791 
L 1734 2791 
Q 2188 2791 2409 2933 
Q 2631 3075 2631 3366 
Q 2631 3634 2415 3781 
Q 2200 3928 1806 3928 
Q 1516 3928 1219 3862 
Q 922 3797 628 3669 
L 628 4550 
Q 984 4650 1334 4700 
Q 1684 4750 2022 4750 
Q 2931 4750 3382 4451 
Q 3834 4153 3834 3553 
Q 3834 3144 3618 2883 
Q 3403 2622 2981 2516 
z
" transform="scale(0.015625)"/>
      <path id="DejaVuSans-Bold-35" d="M 678 4666 
L 3669 4666 
L 3669 3781 
L 1638 3781 
L 1638 3059 
Q 1775 3097 1914 3117 
Q 2053 3138 2203 3138 
Q 3056 3138 3531 2711 
Q 4006 2284 4006 1522 
Q 4006 766 3489 337 
Q 2972 -91 2053 -91 
Q 1656 -91 1267 -14 
Q 878 63 494 219 
L 494 1166 
Q 875 947 1217 837 
Q 1559 728 1863 728 
Q 2300 728 2551 942 
Q 2803 1156 2803 1522 
Q 2803 1891 2551 2103 
Q 2300 2316 1863 2316 
Q 1603 2316 1309 2248 
Q 1016 2181 678 2041 
L 678 4666 
z
" transform="scale(0.015625)"/>
     </defs>
     <use xlink:href="#DejaVuSans-Bold-33"/>
     <use xlink:href="#DejaVuSans-Bold-30" transform="translate(69.580078 0)"/>
     <use xlink:href="#DejaVuSans-Bold-2f" transform="translate(139.160156 0)"/>
     <use xlink:href="#DejaVuSans-Bold-34" transform="translate(175.683594 0)"/>
     <use xlink:href="#DejaVuSans-Bold-30" transform="translate(245.263672 0)"/>
     <use xlink:href="#DejaVuSans-Bold-20" transform="translate(314.84375 0)"/>
     <use xlink:href="#DejaVuSans-Bold-20" transform="translate(349.658203 0)"/>
     <use xlink:href="#DejaVuSans-Bold-28" transform="translate(384.472656 0)"/>
     <use xlink:href="#DejaVuSans-Bold-37" transform="translate(430.175781 0)"/>
     <use xlink:href="#DejaVuSans-Bold-35" transform="translate(499.755859 0)"/>
     <use xlink:href="#DejaVuSans-Bold-25" transform="translate(569.335938 0)"/>
     <use xlink:href="#DejaVuSans-Bold-29" transform="translate(669.53125 0)"/>
    </g>
   </g>
   <g id="text_14">
    <!-- 56 s -->
    <g style="fill: #acb8d5" transform="translate(1007.489475 267.334123) scale(0.21 -0.21)">
     <defs>
      <path id="DejaVuSans-36" d="M 2113 2584 
Q 1688 2584 1439 2293 
Q 1191 2003 1191 1497 
Q 1191 994 1439 701 
Q 1688 409 2113 409 
Q 2538 409 2786 701 
Q 3034 994 3034 1497 
Q 3034 2003 2786 2293 
Q 2538 2584 2113 2584 
z
M 3366 4563 
L 3366 3988 
Q 3128 4100 2886 4159 
Q 2644 4219 2406 4219 
Q 1781 4219 1451 3797 
Q 1122 3375 1075 2522 
Q 1259 2794 1537 2939 
Q 1816 3084 2150 3084 
Q 2853 3084 3261 2657 
Q 3669 2231 3669 1497 
Q 3669 778 3244 343 
Q 2819 -91 2113 -91 
Q 1303 -91 875 529 
Q 447 1150 447 2328 
Q 447 3434 972 4092 
Q 1497 4750 2381 4750 
Q 2619 4750 2861 4703 
Q 3103 4656 3366 4563 
z
" transform="scale(0.015625)"/>
     </defs>
     <use xlink:href="#DejaVuSans-35"/>
     <use xlink:href="#DejaVuSans-36" transform="translate(63.623047 0)"/>
     <use xlink:href="#DejaVuSans-20" transform="translate(127.246094 0)"/>
     <use xlink:href="#DejaVuSans-73" transform="translate(159.033203 0)"/>
    </g>
   </g>
   <g id="text_15">
    <!-- 28/40  (70%) -->
    <g style="fill: #f3f5ff" transform="translate(705.2544 347.447127) scale(0.23 -0.23)">
     <use xlink:href="#DejaVuSans-Bold-32"/>
     <use xlink:href="#DejaVuSans-Bold-38" transform="translate(69.580078 0)"/>
     <use xlink:href="#DejaVuSans-Bold-2f" transform="translate(139.160156 0)"/>
     <use xlink:href="#DejaVuSans-Bold-34" transform="translate(175.683594 0)"/>
     <use xlink:href="#DejaVuSans-Bold-30" transform="translate(245.263672 0)"/>
     <use xlink:href="#DejaVuSans-Bold-20" transform="translate(314.84375 0)"/>
     <use xlink:href="#DejaVuSans-Bold-20" transform="translate(349.658203 0)"/>
     <use xlink:href="#DejaVuSans-Bold-28" transform="translate(384.472656 0)"/>
     <use xlink:href="#DejaVuSans-Bold-37" transform="translate(430.175781 0)"/>
     <use xlink:href="#DejaVuSans-Bold-30" transform="translate(499.755859 0)"/>
     <use xlink:href="#DejaVuSans-Bold-25" transform="translate(569.335938 0)"/>
     <use xlink:href="#DejaVuSans-Bold-29" transform="translate(669.53125 0)"/>
    </g>
   </g>
   <g id="text_16">
    <!-- 59 s -->
    <g style="fill: #acb8d5" transform="translate(1007.489475 346.895252) scale(0.21 -0.21)">
     <defs>
      <path id="DejaVuSans-39" d="M 703 97 
L 703 672 
Q 941 559 1184 500 
Q 1428 441 1663 441 
Q 2288 441 2617 861 
Q 2947 1281 2994 2138 
Q 2813 1869 2534 1725 
Q 2256 1581 1919 1581 
Q 1219 1581 811 2004 
Q 403 2428 403 3163 
Q 403 3881 828 4315 
Q 1253 4750 1959 4750 
Q 2769 4750 3195 4129 
Q 3622 3509 3622 2328 
Q 3622 1225 3098 567 
Q 2575 -91 1691 -91 
Q 1453 -91 1209 -44 
Q 966 3 703 97 
z
M 1959 2075 
Q 2384 2075 2632 2365 
Q 2881 2656 2881 3163 
Q 2881 3666 2632 3958 
Q 2384 4250 1959 4250 
Q 1534 4250 1286 3958 
Q 1038 3666 1038 3163 
Q 1038 2656 1286 2365 
Q 1534 2075 1959 2075 
z
" transform="scale(0.015625)"/>
     </defs>
     <use xlink:href="#DejaVuSans-35"/>
     <use xlink:href="#DejaVuSans-39" transform="translate(63.623047 0)"/>
     <use xlink:href="#DejaVuSans-20" transform="translate(127.246094 0)"/>
     <use xlink:href="#DejaVuSans-73" transform="translate(159.033203 0)"/>
    </g>
   </g>
   <g id="text_17">
    <!-- 29/40  (72.5%) -->
    <g style="fill: #f3f5ff" transform="translate(717.5424 427.008255) scale(0.23 -0.23)">
     <defs>
      <path id="DejaVuSans-Bold-39" d="M 641 103 
L 641 966 
Q 928 831 1190 764 
Q 1453 697 1709 697 
Q 2247 697 2547 995 
Q 2847 1294 2900 1881 
Q 2688 1725 2447 1647 
Q 2206 1569 1925 1569 
Q 1209 1569 770 1986 
Q 331 2403 331 3084 
Q 331 3838 820 4291 
Q 1309 4744 2131 4744 
Q 3044 4744 3544 4128 
Q 4044 3513 4044 2388 
Q 4044 1231 3459 570 
Q 2875 -91 1856 -91 
Q 1528 -91 1228 -42 
Q 928 6 641 103 
z
M 2125 2350 
Q 2441 2350 2600 2554 
Q 2759 2759 2759 3169 
Q 2759 3575 2600 3781 
Q 2441 3988 2125 3988 
Q 1809 3988 1650 3781 
Q 1491 3575 1491 3169 
Q 1491 2759 1650 2554 
Q 1809 2350 2125 2350 
z
" transform="scale(0.015625)"/>
      <path id="DejaVuSans-Bold-2e" d="M 653 1209 
L 1778 1209 
L 1778 0 
L 653 0 
L 653 1209 
z
" transform="scale(0.015625)"/>
     </defs>
     <use xlink:href="#DejaVuSans-Bold-32"/>
     <use xlink:href="#DejaVuSans-Bold-39" transform="translate(69.580078 0)"/>
     <use xlink:href="#DejaVuSans-Bold-2f" transform="translate(139.160156 0)"/>
     <use xlink:href="#DejaVuSans-Bold-34" transform="translate(175.683594 0)"/>
     <use xlink:href="#DejaVuSans-Bold-30" transform="translate(245.263672 0)"/>
     <use xlink:href="#DejaVuSans-Bold-20" transform="translate(314.84375 0)"/>
     <use xlink:href="#DejaVuSans-Bold-20" transform="translate(349.658203 0)"/>
     <use xlink:href="#DejaVuSans-Bold-28" transform="translate(384.472656 0)"/>
     <use xlink:href="#DejaVuSans-Bold-37" transform="translate(430.175781 0)"/>
     <use xlink:href="#DejaVuSans-Bold-32" transform="translate(499.755859 0)"/>
     <use xlink:href="#DejaVuSans-Bold-2e" transform="translate(569.335938 0)"/>
     <use xlink:href="#DejaVuSans-Bold-35" transform="translate(607.324219 0)"/>
     <use xlink:href="#DejaVuSans-Bold-25" transform="translate(676.904297 0)"/>
     <use xlink:href="#DejaVuSans-Bold-29" transform="translate(777.099609 0)"/>
    </g>
   </g>
   <g id="text_18">
    <!-- 59 s -->
    <g style="fill: #acb8d5" transform="translate(1007.489475 426.45638) scale(0.21 -0.21)">
     <use xlink:href="#DejaVuSans-35"/>
     <use xlink:href="#DejaVuSans-39" transform="translate(63.623047 0)"/>
     <use xlink:href="#DejaVuSans-20" transform="translate(127.246094 0)"/>
     <use xlink:href="#DejaVuSans-73" transform="translate(159.033203 0)"/>
    </g>
   </g>
   <g id="text_19">
    <!-- Mean wall time -->
    <g style="fill: #acb8d5" transform="translate(976.417131 132.2892) scale(0.14 -0.14)">
     <defs>
      <path id="DejaVuSans-4d" d="M 628 4666 
L 1569 4666 
L 2759 1491 
L 3956 4666 
L 4897 4666 
L 4897 0 
L 4281 0 
L 4281 4097 
L 3078 897 
L 2444 897 
L 1241 4097 
L 1241 0 
L 628 0 
L 628 4666 
z
" transform="scale(0.015625)"/>
     </defs>
     <use xlink:href="#DejaVuSans-4d"/>
     <use xlink:href="#DejaVuSans-65" transform="translate(86.279297 0)"/>
     <use xlink:href="#DejaVuSans-61" transform="translate(147.802734 0)"/>
     <use xlink:href="#DejaVuSans-6e" transform="translate(209.082031 0)"/>
     <use xlink:href="#DejaVuSans-20" transform="translate(272.460938 0)"/>
     <use xlink:href="#DejaVuSans-77" transform="translate(304.248047 0)"/>
     <use xlink:href="#DejaVuSans-61" transform="translate(386.035156 0)"/>
     <use xlink:href="#DejaVuSans-6c" transform="translate(447.314453 0)"/>
     <use xlink:href="#DejaVuSans-6c" transform="translate(475.097656 0)"/>
     <use xlink:href="#DejaVuSans-20" transform="translate(502.880859 0)"/>
     <use xlink:href="#DejaVuSans-74" transform="translate(534.667969 0)"/>
     <use xlink:href="#DejaVuSans-69" transform="translate(573.876953 0)"/>
     <use xlink:href="#DejaVuSans-6d" transform="translate(601.660156 0)"/>
     <use xlink:href="#DejaVuSans-65" transform="translate(699.072266 0)"/>
    </g>
   </g>
  </g>
  <g id="text_20">
   <!-- CAN A CONFIDENTLY WRONG USER DERAIL AI? -->
   <g style="fill: #f3f5ff" transform="translate(51.84 48.6) scale(0.29 -0.29)">
    <defs>
     <path id="DejaVuSans-Bold-43" d="M 4288 256 
Q 3956 84 3597 -3 
Q 3238 -91 2847 -91 
Q 1681 -91 1000 561 
Q 319 1213 319 2328 
Q 319 3447 1000 4098 
Q 1681 4750 2847 4750 
Q 3238 4750 3597 4662 
Q 3956 4575 4288 4403 
L 4288 3438 
Q 3953 3666 3628 3772 
Q 3303 3878 2944 3878 
Q 2300 3878 1931 3465 
Q 1563 3053 1563 2328 
Q 1563 1606 1931 1193 
Q 2300 781 2944 781 
Q 3303 781 3628 887 
Q 3953 994 4288 1222 
L 4288 256 
z
" transform="scale(0.015625)"/>
     <path id="DejaVuSans-Bold-41" d="M 3419 850 
L 1538 850 
L 1241 0 
L 31 0 
L 1759 4666 
L 3194 4666 
L 4922 0 
L 3713 0 
L 3419 850 
z
M 1838 1716 
L 3116 1716 
L 2478 3572 
L 1838 1716 
z
" transform="scale(0.015625)"/>
     <path id="DejaVuSans-Bold-4e" d="M 588 4666 
L 1931 4666 
L 3628 1466 
L 3628 4666 
L 4769 4666 
L 4769 0 
L 3425 0 
L 1728 3200 
L 1728 0 
L 588 0 
L 588 4666 
z
" transform="scale(0.015625)"/>
     <path id="DejaVuSans-Bold-4f" d="M 2719 3878 
Q 2169 3878 1866 3472 
Q 1563 3066 1563 2328 
Q 1563 1594 1866 1187 
Q 2169 781 2719 781 
Q 3272 781 3575 1187 
Q 3878 1594 3878 2328 
Q 3878 3066 3575 3472 
Q 3272 3878 2719 3878 
z
M 2719 4750 
Q 3844 4750 4481 4106 
Q 5119 3463 5119 2328 
Q 5119 1197 4481 553 
Q 3844 -91 2719 -91 
Q 1597 -91 958 553 
Q 319 1197 319 2328 
Q 319 3463 958 4106 
Q 1597 4750 2719 4750 
z
" transform="scale(0.015625)"/>
     <path id="DejaVuSans-Bold-46" d="M 588 4666 
L 3834 4666 
L 3834 3756 
L 1791 3756 
L 1791 2888 
L 3713 2888 
L 3713 1978 
L 1791 1978 
L 1791 0 
L 588 0 
L 588 4666 
z
" transform="scale(0.015625)"/>
     <path id="DejaVuSans-Bold-49" d="M 588 4666 
L 1791 4666 
L 1791 0 
L 588 0 
L 588 4666 
z
" transform="scale(0.015625)"/>
     <path id="DejaVuSans-Bold-44" d="M 1791 3756 
L 1791 909 
L 2222 909 
Q 2959 909 3348 1275 
Q 3738 1641 3738 2338 
Q 3738 3031 3350 3393 
Q 2963 3756 2222 3756 
L 1791 3756 
z
M 588 4666 
L 1856 4666 
Q 2919 4666 3439 4514 
Q 3959 4363 4331 4000 
Q 4659 3684 4818 3271 
Q 4978 2859 4978 2338 
Q 4978 1809 4818 1395 
Q 4659 981 4331 666 
Q 3956 303 3431 151 
Q 2906 0 1856 0 
L 588 0 
L 588 4666 
z
" transform="scale(0.015625)"/>
     <path id="DejaVuSans-Bold-45" d="M 588 4666 
L 3834 4666 
L 3834 3756 
L 1791 3756 
L 1791 2888 
L 3713 2888 
L 3713 1978 
L 1791 1978 
L 1791 909 
L 3903 909 
L 3903 0 
L 588 0 
L 588 4666 
z
" transform="scale(0.015625)"/>
     <path id="DejaVuSans-Bold-54" d="M 31 4666 
L 4331 4666 
L 4331 3756 
L 2784 3756 
L 2784 0 
L 1581 0 
L 1581 3756 
L 31 3756 
L 31 4666 
z
" transform="scale(0.015625)"/>
     <path id="DejaVuSans-Bold-4c" d="M 588 4666 
L 1791 4666 
L 1791 909 
L 3903 909 
L 3903 0 
L 588 0 
L 588 4666 
z
" transform="scale(0.015625)"/>
     <path id="DejaVuSans-Bold-59" d="M -63 4666 
L 1253 4666 
L 2316 3003 
L 3378 4666 
L 4697 4666 
L 2919 1966 
L 2919 0 
L 1716 0 
L 1716 1966 
L -63 4666 
z
" transform="scale(0.015625)"/>
     <path id="DejaVuSans-Bold-57" d="M 191 4666 
L 1344 4666 
L 2150 1275 
L 2950 4666 
L 4109 4666 
L 4909 1275 
L 5716 4666 
L 6859 4666 
L 5759 0 
L 4372 0 
L 3525 3547 
L 2688 0 
L 1300 0 
L 191 4666 
z
" transform="scale(0.015625)"/>
     <path id="DejaVuSans-Bold-52" d="M 2297 2597 
Q 2675 2597 2839 2737 
Q 3003 2878 3003 3200 
Q 3003 3519 2839 3656 
Q 2675 3794 2297 3794 
L 1791 3794 
L 1791 2597 
L 2297 2597 
z
M 1791 1766 
L 1791 0 
L 588 0 
L 588 4666 
L 2425 4666 
Q 3347 4666 3776 4356 
Q 4206 4047 4206 3378 
Q 4206 2916 3982 2619 
Q 3759 2322 3309 2181 
Q 3556 2125 3751 1926 
Q 3947 1728 4147 1325 
L 4800 0 
L 3519 0 
L 2950 1159 
Q 2778 1509 2601 1637 
Q 2425 1766 2131 1766 
L 1791 1766 
z
" transform="scale(0.015625)"/>
     <path id="DejaVuSans-Bold-47" d="M 4781 347 
Q 4331 128 3847 18 
Q 3363 -91 2847 -91 
Q 1681 -91 1000 561 
Q 319 1213 319 2328 
Q 319 3456 1012 4103 
Q 1706 4750 2913 4750 
Q 3378 4750 3804 4662 
Q 4231 4575 4609 4403 
L 4609 3438 
Q 4219 3659 3833 3768 
Q 3447 3878 3059 3878 
Q 2341 3878 1952 3476 
Q 1563 3075 1563 2328 
Q 1563 1588 1938 1184 
Q 2313 781 3003 781 
Q 3191 781 3352 804 
Q 3513 828 3641 878 
L 3641 1784 
L 2906 1784 
L 2906 2591 
L 4781 2591 
L 4781 347 
z
" transform="scale(0.015625)"/>
     <path id="DejaVuSans-Bold-55" d="M 588 4666 
L 1791 4666 
L 1791 1869 
Q 1791 1291 1980 1042 
Q 2169 794 2597 794 
Q 3028 794 3217 1042 
Q 3406 1291 3406 1869 
L 3406 4666 
L 4609 4666 
L 4609 1869 
Q 4609 878 4112 393 
Q 3616 -91 2597 -91 
Q 1581 -91 1084 393 
Q 588 878 588 1869 
L 588 4666 
z
" transform="scale(0.015625)"/>
     <path id="DejaVuSans-Bold-53" d="M 3834 4519 
L 3834 3531 
Q 3450 3703 3084 3790 
Q 2719 3878 2394 3878 
Q 1963 3878 1756 3759 
Q 1550 3641 1550 3391 
Q 1550 3203 1689 3098 
Q 1828 2994 2194 2919 
L 2706 2816 
Q 3484 2659 3812 2340 
Q 4141 2022 4141 1434 
Q 4141 663 3683 286 
Q 3225 -91 2284 -91 
Q 1841 -91 1394 -6 
Q 947 78 500 244 
L 500 1259 
Q 947 1022 1364 901 
Q 1781 781 2169 781 
Q 2563 781 2772 912 
Q 2981 1044 2981 1288 
Q 2981 1506 2839 1625 
Q 2697 1744 2272 1838 
L 1806 1941 
Q 1106 2091 782 2419 
Q 459 2747 459 3303 
Q 459 4000 909 4375 
Q 1359 4750 2203 4750 
Q 2588 4750 2994 4692 
Q 3400 4634 3834 4519 
z
" transform="scale(0.015625)"/>
     <path id="DejaVuSans-Bold-3f" d="M 2216 1575 
L 1088 1575 
L 1088 1728 
Q 1088 1984 1191 2182 
Q 1294 2381 1625 2688 
L 1825 2869 
Q 2003 3031 2086 3175 
Q 2169 3319 2169 3463 
Q 2169 3681 2019 3804 
Q 1869 3928 1600 3928 
Q 1347 3928 1053 3823 
Q 759 3719 441 3513 
L 441 4494 
Q 819 4625 1131 4687 
Q 1444 4750 1734 4750 
Q 2497 4750 2897 4439 
Q 3297 4128 3297 3531 
Q 3297 3225 3175 2983 
Q 3053 2741 2759 2463 
L 2559 2284 
Q 2347 2091 2281 1973 
Q 2216 1856 2216 1716 
L 2216 1575 
z
M 1088 1113 
L 2216 1113 
L 2216 0 
L 1088 0 
L 1088 1113 
z
" transform="scale(0.015625)"/>
    </defs>
    <use xlink:href="#DejaVuSans-Bold-43"/>
    <use xlink:href="#DejaVuSans-Bold-41" transform="translate(73.388672 0)"/>
    <use xlink:href="#DejaVuSans-Bold-4e" transform="translate(150.78125 0)"/>
    <use xlink:href="#DejaVuSans-Bold-20" transform="translate(234.472656 0)"/>
    <use xlink:href="#DejaVuSans-Bold-41" transform="translate(269.287109 0)"/>
    <use xlink:href="#DejaVuSans-Bold-20" transform="translate(346.679688 0)"/>
    <use xlink:href="#DejaVuSans-Bold-43" transform="translate(381.494141 0)"/>
    <use xlink:href="#DejaVuSans-Bold-4f" transform="translate(454.882812 0)"/>
    <use xlink:href="#DejaVuSans-Bold-4e" transform="translate(539.892578 0)"/>
    <use xlink:href="#DejaVuSans-Bold-46" transform="translate(623.583984 0)"/>
    <use xlink:href="#DejaVuSans-Bold-49" transform="translate(691.894531 0)"/>
    <use xlink:href="#DejaVuSans-Bold-44" transform="translate(729.101562 0)"/>
    <use xlink:href="#DejaVuSans-Bold-45" transform="translate(812.109375 0)"/>
    <use xlink:href="#DejaVuSans-Bold-4e" transform="translate(880.419922 0)"/>
    <use xlink:href="#DejaVuSans-Bold-54" transform="translate(964.111328 0)"/>
    <use xlink:href="#DejaVuSans-Bold-4c" transform="translate(1032.324219 0)"/>
    <use xlink:href="#DejaVuSans-Bold-59" transform="translate(1080.419922 0)"/>
    <use xlink:href="#DejaVuSans-Bold-20" transform="translate(1152.832031 0)"/>
    <use xlink:href="#DejaVuSans-Bold-57" transform="translate(1187.646484 0)"/>
    <use xlink:href="#DejaVuSans-Bold-52" transform="translate(1297.949219 0)"/>
    <use xlink:href="#DejaVuSans-Bold-4f" transform="translate(1374.951172 0)"/>
    <use xlink:href="#DejaVuSans-Bold-4e" transform="translate(1459.960938 0)"/>
    <use xlink:href="#DejaVuSans-Bold-47" transform="translate(1543.652344 0)"/>
    <use xlink:href="#DejaVuSans-Bold-20" transform="translate(1625.732422 0)"/>
    <use xlink:href="#DejaVuSans-Bold-55" transform="translate(1660.546875 0)"/>
    <use xlink:href="#DejaVuSans-Bold-53" transform="translate(1741.748047 0)"/>
    <use xlink:href="#DejaVuSans-Bold-45" transform="translate(1813.769531 0)"/>
    <use xlink:href="#DejaVuSans-Bold-52" transform="translate(1882.080078 0)"/>
    <use xlink:href="#DejaVuSans-Bold-20" transform="translate(1959.082031 0)"/>
    <use xlink:href="#DejaVuSans-Bold-44" transform="translate(1993.896484 0)"/>
    <use xlink:href="#DejaVuSans-Bold-45" transform="translate(2076.904297 0)"/>
    <use xlink:href="#DejaVuSans-Bold-52" transform="translate(2145.214844 0)"/>
    <use xlink:href="#DejaVuSans-Bold-41" transform="translate(2222.216797 0)"/>
    <use xlink:href="#DejaVuSans-Bold-49" transform="translate(2299.609375 0)"/>
    <use xlink:href="#DejaVuSans-Bold-4c" transform="translate(2336.816406 0)"/>
    <use xlink:href="#DejaVuSans-Bold-20" transform="translate(2400.537109 0)"/>
    <use xlink:href="#DejaVuSans-Bold-41" transform="translate(2435.351562 0)"/>
    <use xlink:href="#DejaVuSans-Bold-49" transform="translate(2512.744141 0)"/>
    <use xlink:href="#DejaVuSans-Bold-3f" transform="translate(2549.951172 0)"/>
   </g>
  </g>
  <g id="text_21">
   <!-- GPT-6 Astra · 20 selected SymPy bugs · 4 prompts · 2 repeats · 160 runs -->
   <g style="fill: #acb8d5" transform="translate(51.84 87.48) scale(0.19 -0.19)">
    <defs>
     <path id="DejaVuSans-47" d="M 3809 666 
L 3809 1919 
L 2778 1919 
L 2778 2438 
L 4434 2438 
L 4434 434 
Q 4069 175 3628 42 
Q 3188 -91 2688 -91 
Q 1594 -91 976 548 
Q 359 1188 359 2328 
Q 359 3472 976 4111 
Q 1594 4750 2688 4750 
Q 3144 4750 3555 4637 
Q 3966 4525 4313 4306 
L 4313 3634 
Q 3963 3931 3569 4081 
Q 3175 4231 2741 4231 
Q 1884 4231 1454 3753 
Q 1025 3275 1025 2328 
Q 1025 1384 1454 906 
Q 1884 428 2741 428 
Q 3075 428 3337 486 
Q 3600 544 3809 666 
z
" transform="scale(0.015625)"/>
     <path id="DejaVuSans-50" d="M 1259 4147 
L 1259 2394 
L 2053 2394 
Q 2494 2394 2734 2622 
Q 2975 2850 2975 3272 
Q 2975 3691 2734 3919 
Q 2494 4147 2053 4147 
L 1259 4147 
z
M 628 4666 
L 2053 4666 
Q 2838 4666 3239 4311 
Q 3641 3956 3641 3272 
Q 3641 2581 3239 2228 
Q 2838 1875 2053 1875 
L 1259 1875 
L 1259 0 
L 628 0 
L 628 4666 
z
" transform="scale(0.015625)"/>
     <path id="DejaVuSans-54" d="M -19 4666 
L 3928 4666 
L 3928 4134 
L 2272 4134 
L 2272 0 
L 1638 0 
L 1638 4134 
L -19 4134 
L -19 4666 
z
" transform="scale(0.015625)"/>
     <path id="DejaVuSans-2d" d="M 313 2009 
L 1997 2009 
L 1997 1497 
L 313 1497 
L 313 2009 
z
" transform="scale(0.015625)"/>
     <path id="DejaVuSans-53" d="M 3425 4513 
L 3425 3897 
Q 3066 4069 2747 4153 
Q 2428 4238 2131 4238 
Q 1616 4238 1336 4038 
Q 1056 3838 1056 3469 
Q 1056 3159 1242 3001 
Q 1428 2844 1947 2747 
L 2328 2669 
Q 3034 2534 3370 2195 
Q 3706 1856 3706 1288 
Q 3706 609 3251 259 
Q 2797 -91 1919 -91 
Q 1588 -91 1214 -16 
Q 841 59 441 206 
L 441 856 
Q 825 641 1194 531 
Q 1563 422 1919 422 
Q 2459 422 2753 634 
Q 3047 847 3047 1241 
Q 3047 1584 2836 1778 
Q 2625 1972 2144 2069 
L 1759 2144 
Q 1053 2284 737 2584 
Q 422 2884 422 3419 
Q 422 4038 858 4394 
Q 1294 4750 2059 4750 
Q 2388 4750 2728 4690 
Q 3069 4631 3425 4513 
z
" transform="scale(0.015625)"/>
     <path id="DejaVuSans-62" d="M 3116 1747 
Q 3116 2381 2855 2742 
Q 2594 3103 2138 3103 
Q 1681 3103 1420 2742 
Q 1159 2381 1159 1747 
Q 1159 1113 1420 752 
Q 1681 391 2138 391 
Q 2594 391 2855 752 
Q 3116 1113 3116 1747 
z
M 1159 2969 
Q 1341 3281 1617 3432 
Q 1894 3584 2278 3584 
Q 2916 3584 3314 3078 
Q 3713 2572 3713 1747 
Q 3713 922 3314 415 
Q 2916 -91 2278 -91 
Q 1894 -91 1617 61 
Q 1341 213 1159 525 
L 1159 0 
L 581 0 
L 581 4863 
L 1159 4863 
L 1159 2969 
z
" transform="scale(0.015625)"/>
     <path id="DejaVuSans-34" d="M 2419 4116 
L 825 1625 
L 2419 1625 
L 2419 4116 
z
M 2253 4666 
L 3047 4666 
L 3047 1625 
L 3713 1625 
L 3713 1100 
L 3047 1100 
L 3047 0 
L 2419 0 
L 2419 1100 
L 313 1100 
L 313 1709 
L 2253 4666 
z
" transform="scale(0.015625)"/>
    </defs>
    <use xlink:href="#DejaVuSans-47"/>
    <use xlink:href="#DejaVuSans-50" transform="translate(77.490234 0)"/>
    <use xlink:href="#DejaVuSans-54" transform="translate(137.792969 0)"/>
    <use xlink:href="#DejaVuSans-2d" transform="translate(189.751953 0)"/>
    <use xlink:href="#DejaVuSans-36" transform="translate(225.835938 0)"/>
    <use xlink:href="#DejaVuSans-20" transform="translate(289.458984 0)"/>
    <use xlink:href="#DejaVuSans-41" transform="translate(321.246094 0)"/>
    <use xlink:href="#DejaVuSans-73" transform="translate(389.654297 0)"/>
    <use xlink:href="#DejaVuSans-74" transform="translate(441.753906 0)"/>
    <use xlink:href="#DejaVuSans-72" transform="translate(480.962891 0)"/>
    <use xlink:href="#DejaVuSans-61" transform="translate(522.076172 0)"/>
    <use xlink:href="#DejaVuSans-20" transform="translate(583.355469 0)"/>
    <use xlink:href="#DejaVuSans-b7" transform="translate(615.142578 0)"/>
    <use xlink:href="#DejaVuSans-20" transform="translate(646.929688 0)"/>
    <use xlink:href="#DejaVuSans-32" transform="translate(678.716797 0)"/>
    <use xlink:href="#DejaVuSans-30" transform="translate(742.339844 0)"/>
    <use xlink:href="#DejaVuSans-20" transform="translate(805.962891 0)"/>
    <use xlink:href="#DejaVuSans-73" transform="translate(837.75 0)"/>
    <use xlink:href="#DejaVuSans-65" transform="translate(889.849609 0)"/>
    <use xlink:href="#DejaVuSans-6c" transform="translate(951.373047 0)"/>
    <use xlink:href="#DejaVuSans-65" transform="translate(979.15625 0)"/>
    <use xlink:href="#DejaVuSans-63" transform="translate(1040.679688 0)"/>
    <use xlink:href="#DejaVuSans-74" transform="translate(1095.660156 0)"/>
    <use xlink:href="#DejaVuSans-65" transform="translate(1134.869141 0)"/>
    <use xlink:href="#DejaVuSans-64" transform="translate(1196.392578 0)"/>
    <use xlink:href="#DejaVuSans-20" transform="translate(1259.869141 0)"/>
    <use xlink:href="#DejaVuSans-53" transform="translate(1291.65625 0)"/>
    <use xlink:href="#DejaVuSans-79" transform="translate(1355.132812 0)"/>
    <use xlink:href="#DejaVuSans-6d" transform="translate(1414.3125 0)"/>
    <use xlink:href="#DejaVuSans-50" transform="translate(1511.724609 0)"/>
    <use xlink:href="#DejaVuSans-79" transform="translate(1572.027344 0)"/>
    <use xlink:href="#DejaVuSans-20" transform="translate(1631.207031 0)"/>
    <use xlink:href="#DejaVuSans-62" transform="translate(1662.994141 0)"/>
    <use xlink:href="#DejaVuSans-75" transform="translate(1726.470703 0)"/>
    <use xlink:href="#DejaVuSans-67" transform="translate(1789.849609 0)"/>
    <use xlink:href="#DejaVuSans-73" transform="translate(1853.326172 0)"/>
    <use xlink:href="#DejaVuSans-20" transform="translate(1905.425781 0)"/>
    <use xlink:href="#DejaVuSans-b7" transform="translate(1937.212891 0)"/>
    <use xlink:href="#DejaVuSans-20" transform="translate(1969 0)"/>
    <use xlink:href="#DejaVuSans-34" transform="translate(2000.787109 0)"/>
    <use xlink:href="#DejaVuSans-20" transform="translate(2064.410156 0)"/>
    <use xlink:href="#DejaVuSans-70" transform="translate(2096.197266 0)"/>
    <use xlink:href="#DejaVuSans-72" transform="translate(2159.673828 0)"/>
    <use xlink:href="#DejaVuSans-6f" transform="translate(2198.537109 0)"/>
    <use xlink:href="#DejaVuSans-6d" transform="translate(2259.71875 0)"/>
    <use xlink:href="#DejaVuSans-70" transform="translate(2357.130859 0)"/>
    <use xlink:href="#DejaVuSans-74" transform="translate(2420.607422 0)"/>
    <use xlink:href="#DejaVuSans-73" transform="translate(2459.816406 0)"/>
    <use xlink:href="#DejaVuSans-20" transform="translate(2511.916016 0)"/>
    <use xlink:href="#DejaVuSans-b7" transform="translate(2543.703125 0)"/>
    <use xlink:href="#DejaVuSans-20" transform="translate(2575.490234 0)"/>
    <use xlink:href="#DejaVuSans-32" transform="translate(2607.277344 0)"/>
    <use xlink:href="#DejaVuSans-20" transform="translate(2670.900391 0)"/>
    <use xlink:href="#DejaVuSans-72" transform="translate(2702.6875 0)"/>
    <use xlink:href="#DejaVuSans-65" transform="translate(2741.550781 0)"/>
    <use xlink:href="#DejaVuSans-70" transform="translate(2803.074219 0)"/>
    <use xlink:href="#DejaVuSans-65" transform="translate(2866.550781 0)"/>
    <use xlink:href="#DejaVuSans-61" transform="translate(2928.074219 0)"/>
    <use xlink:href="#DejaVuSans-74" transform="translate(2989.353516 0)"/>
    <use xlink:href="#DejaVuSans-73" transform="translate(3028.5625 0)"/>
    <use xlink:href="#DejaVuSans-20" transform="translate(3080.662109 0)"/>
    <use xlink:href="#DejaVuSans-b7" transform="translate(3112.449219 0)"/>
    <use xlink:href="#DejaVuSans-20" transform="translate(3144.236328 0)"/>
    <use xlink:href="#DejaVuSans-31" transform="translate(3176.023438 0)"/>
    <use xlink:href="#DejaVuSans-36" transform="translate(3239.646484 0)"/>
    <use xlink:href="#DejaVuSans-30" transform="translate(3303.269531 0)"/>
    <use xlink:href="#DejaVuSans-20" transform="translate(3366.892578 0)"/>
    <use xlink:href="#DejaVuSans-72" transform="translate(3398.679688 0)"/>
    <use xlink:href="#DejaVuSans-75" transform="translate(3439.792969 0)"/>
    <use xlink:href="#DejaVuSans-6e" transform="translate(3503.171875 0)"/>
    <use xlink:href="#DejaVuSans-73" transform="translate(3566.550781 0)"/>
   </g>
  </g>
  <g id="text_22">
   <!-- Confidence effect: +2.5 percentage points · only 1 of 20 issues differed; no established advantage. -->
   <g style="fill: #f3f5ff" transform="translate(51.84 524.88) scale(0.17 -0.17)">
    <defs>
     <path id="DejaVuSans-3a" d="M 750 794 
L 1409 794 
L 1409 0 
L 750 0 
L 750 794 
z
M 750 3309 
L 1409 3309 
L 1409 2516 
L 750 2516 
L 750 3309 
z
" transform="scale(0.015625)"/>
     <path id="DejaVuSans-2b" d="M 2944 4013 
L 2944 2272 
L 4684 2272 
L 4684 1741 
L 2944 1741 
L 2944 0 
L 2419 0 
L 2419 1741 
L 678 1741 
L 678 2272 
L 2419 2272 
L 2419 4013 
L 2944 4013 
z
" transform="scale(0.015625)"/>
     <path id="DejaVuSans-2e" d="M 684 794 
L 1344 794 
L 1344 0 
L 684 0 
L 684 794 
z
" transform="scale(0.015625)"/>
     <path id="DejaVuSans-3b" d="M 750 3309 
L 1409 3309 
L 1409 2516 
L 750 2516 
L 750 3309 
z
M 750 794 
L 1409 794 
L 1409 256 
L 897 -744 
L 494 -744 
L 750 256 
L 750 794 
z
" transform="scale(0.015625)"/>
    </defs>
    <use xlink:href="#DejaVuSans-43"/>
    <use xlink:href="#DejaVuSans-6f" transform="translate(69.824219 0)"/>
    <use xlink:href="#DejaVuSans-6e" transform="translate(131.005859 0)"/>
    <use xlink:href="#DejaVuSans-66" transform="translate(194.384766 0)"/>
    <use xlink:href="#DejaVuSans-69" transform="translate(229.589844 0)"/>
    <use xlink:href="#DejaVuSans-64" transform="translate(257.373047 0)"/>
    <use xlink:href="#DejaVuSans-65" transform="translate(320.849609 0)"/>
    <use xlink:href="#DejaVuSans-6e" transform="translate(382.373047 0)"/>
    <use xlink:href="#DejaVuSans-63" transform="translate(445.751953 0)"/>
    <use xlink:href="#DejaVuSans-65" transform="translate(500.732422 0)"/>
    <use xlink:href="#DejaVuSans-20" transform="translate(562.255859 0)"/>
    <use xlink:href="#DejaVuSans-65" transform="translate(594.042969 0)"/>
    <use xlink:href="#DejaVuSans-66" transform="translate(655.566406 0)"/>
    <use xlink:href="#DejaVuSans-66" transform="translate(690.771484 0)"/>
    <use xlink:href="#DejaVuSans-65" transform="translate(725.976562 0)"/>
    <use xlink:href="#DejaVuSans-63" transform="translate(787.5 0)"/>
    <use xlink:href="#DejaVuSans-74" transform="translate(842.480469 0)"/>
    <use xlink:href="#DejaVuSans-3a" transform="translate(881.689453 0)"/>
    <use xlink:href="#DejaVuSans-20" transform="translate(915.380859 0)"/>
    <use xlink:href="#DejaVuSans-2b" transform="translate(947.167969 0)"/>
    <use xlink:href="#DejaVuSans-32" transform="translate(1030.957031 0)"/>
    <use xlink:href="#DejaVuSans-2e" transform="translate(1094.580078 0)"/>
    <use xlink:href="#DejaVuSans-35" transform="translate(1126.367188 0)"/>
    <use xlink:href="#DejaVuSans-20" transform="translate(1189.990234 0)"/>
    <use xlink:href="#DejaVuSans-70" transform="translate(1221.777344 0)"/>
    <use xlink:href="#DejaVuSans-65" transform="translate(1285.253906 0)"/>
    <use xlink:href="#DejaVuSans-72" transform="translate(1346.777344 0)"/>
    <use xlink:href="#DejaVuSans-63" transform="translate(1385.640625 0)"/>
    <use xlink:href="#DejaVuSans-65" transform="translate(1440.621094 0)"/>
    <use xlink:href="#DejaVuSans-6e" transform="translate(1502.144531 0)"/>
    <use xlink:href="#DejaVuSans-74" transform="translate(1565.523438 0)"/>
    <use xlink:href="#DejaVuSans-61" transform="translate(1604.732422 0)"/>
    <use xlink:href="#DejaVuSans-67" transform="translate(1666.011719 0)"/>
    <use xlink:href="#DejaVuSans-65" transform="translate(1729.488281 0)"/>
    <use xlink:href="#DejaVuSans-20" transform="translate(1791.011719 0)"/>
    <use xlink:href="#DejaVuSans-70" transform="translate(1822.798828 0)"/>
    <use xlink:href="#DejaVuSans-6f" transform="translate(1886.275391 0)"/>
    <use xlink:href="#DejaVuSans-69" transform="translate(1947.457031 0)"/>
    <use xlink:href="#DejaVuSans-6e" transform="translate(1975.240234 0)"/>
    <use xlink:href="#DejaVuSans-74" transform="translate(2038.619141 0)"/>
    <use xlink:href="#DejaVuSans-73" transform="translate(2077.828125 0)"/>
    <use xlink:href="#DejaVuSans-20" transform="translate(2129.927734 0)"/>
    <use xlink:href="#DejaVuSans-b7" transform="translate(2161.714844 0)"/>
    <use xlink:href="#DejaVuSans-20" transform="translate(2193.501953 0)"/>
    <use xlink:href="#DejaVuSans-6f" transform="translate(2225.289062 0)"/>
    <use xlink:href="#DejaVuSans-6e" transform="translate(2286.470703 0)"/>
    <use xlink:href="#DejaVuSans-6c" transform="translate(2349.849609 0)"/>
    <use xlink:href="#DejaVuSans-79" transform="translate(2377.632812 0)"/>
    <use xlink:href="#DejaVuSans-20" transform="translate(2436.8125 0)"/>
    <use xlink:href="#DejaVuSans-31" transform="translate(2468.599609 0)"/>
    <use xlink:href="#DejaVuSans-20" transform="translate(2532.222656 0)"/>
    <use xlink:href="#DejaVuSans-6f" transform="translate(2564.009766 0)"/>
    <use xlink:href="#DejaVuSans-66" transform="translate(2625.191406 0)"/>
    <use xlink:href="#DejaVuSans-20" transform="translate(2660.396484 0)"/>
    <use xlink:href="#DejaVuSans-32" transform="translate(2692.183594 0)"/>
    <use xlink:href="#DejaVuSans-30" transform="translate(2755.806641 0)"/>
    <use xlink:href="#DejaVuSans-20" transform="translate(2819.429688 0)"/>
    <use xlink:href="#DejaVuSans-69" transform="translate(2851.216797 0)"/>
    <use xlink:href="#DejaVuSans-73" transform="translate(2879 0)"/>
    <use xlink:href="#DejaVuSans-73" transform="translate(2931.099609 0)"/>
    <use xlink:href="#DejaVuSans-75" transform="translate(2983.199219 0)"/>
    <use xlink:href="#DejaVuSans-65" transform="translate(3046.578125 0)"/>
    <use xlink:href="#DejaVuSans-73" transform="translate(3108.101562 0)"/>
    <use xlink:href="#DejaVuSans-20" transform="translate(3160.201172 0)"/>
    <use xlink:href="#DejaVuSans-64" transform="translate(3191.988281 0)"/>
    <use xlink:href="#DejaVuSans-69" transform="translate(3255.464844 0)"/>
    <use xlink:href="#DejaVuSans-66" transform="translate(3283.248047 0)"/>
    <use xlink:href="#DejaVuSans-66" transform="translate(3318.453125 0)"/>
    <use xlink:href="#DejaVuSans-65" transform="translate(3353.658203 0)"/>
    <use xlink:href="#DejaVuSans-72" transform="translate(3415.181641 0)"/>
    <use xlink:href="#DejaVuSans-65" transform="translate(3454.044922 0)"/>
    <use xlink:href="#DejaVuSans-64" transform="translate(3515.568359 0)"/>
    <use xlink:href="#DejaVuSans-3b" transform="translate(3579.044922 0)"/>
    <use xlink:href="#DejaVuSans-20" transform="translate(3612.736328 0)"/>
    <use xlink:href="#DejaVuSans-6e" transform="translate(3644.523438 0)"/>
    <use xlink:href="#DejaVuSans-6f" transform="translate(3707.902344 0)"/>
    <use xlink:href="#DejaVuSans-20" transform="translate(3769.083984 0)"/>
    <use xlink:href="#DejaVuSans-65" transform="translate(3800.871094 0)"/>
    <use xlink:href="#DejaVuSans-73" transform="translate(3862.394531 0)"/>
    <use xlink:href="#DejaVuSans-74" transform="translate(3914.494141 0)"/>
    <use xlink:href="#DejaVuSans-61" transform="translate(3953.703125 0)"/>
    <use xlink:href="#DejaVuSans-62" transform="translate(4014.982422 0)"/>
    <use xlink:href="#DejaVuSans-6c" transform="translate(4078.458984 0)"/>
    <use xlink:href="#DejaVuSans-69" transform="translate(4106.242188 0)"/>
    <use xlink:href="#DejaVuSans-73" transform="translate(4134.025391 0)"/>
    <use xlink:href="#DejaVuSans-68" transform="translate(4186.125 0)"/>
    <use xlink:href="#DejaVuSans-65" transform="translate(4249.503906 0)"/>
    <use xlink:href="#DejaVuSans-64" transform="translate(4311.027344 0)"/>
    <use xlink:href="#DejaVuSans-20" transform="translate(4374.503906 0)"/>
    <use xlink:href="#DejaVuSans-61" transform="translate(4406.291016 0)"/>
    <use xlink:href="#DejaVuSans-64" transform="translate(4467.570312 0)"/>
    <use xlink:href="#DejaVuSans-76" transform="translate(4531.046875 0)"/>
    <use xlink:href="#DejaVuSans-61" transform="translate(4590.226562 0)"/>
    <use xlink:href="#DejaVuSans-6e" transform="translate(4651.505859 0)"/>
    <use xlink:href="#DejaVuSans-74" transform="translate(4714.884766 0)"/>
    <use xlink:href="#DejaVuSans-61" transform="translate(4754.09375 0)"/>
    <use xlink:href="#DejaVuSans-67" transform="translate(4815.373047 0)"/>
    <use xlink:href="#DejaVuSans-65" transform="translate(4878.849609 0)"/>
    <use xlink:href="#DejaVuSans-2e" transform="translate(4940.373047 0)"/>
   </g>
  </g>
  <g id="text_23">
   <!-- 20 historical issues · one model · five-minute cap. Results describe this selected pilot. -->
   <g style="fill: #acb8d5" transform="translate(51.84 570.24) scale(0.16 -0.16)">
    <defs>
     <path id="DejaVuSans-52" d="M 2841 2188 
Q 3044 2119 3236 1894 
Q 3428 1669 3622 1275 
L 4263 0 
L 3584 0 
L 2988 1197 
Q 2756 1666 2539 1819 
Q 2322 1972 1947 1972 
L 1259 1972 
L 1259 0 
L 628 0 
L 628 4666 
L 2053 4666 
Q 2853 4666 3247 4331 
Q 3641 3997 3641 3322 
Q 3641 2881 3436 2590 
Q 3231 2300 2841 2188 
z
M 1259 4147 
L 1259 2491 
L 2053 2491 
Q 2509 2491 2742 2702 
Q 2975 2913 2975 3322 
Q 2975 3731 2742 3939 
Q 2509 4147 2053 4147 
L 1259 4147 
z
" transform="scale(0.015625)"/>
    </defs>
    <use xlink:href="#DejaVuSans-32"/>
    <use xlink:href="#DejaVuSans-30" transform="translate(63.623047 0)"/>
    <use xlink:href="#DejaVuSans-20" transform="translate(127.246094 0)"/>
    <use xlink:href="#DejaVuSans-68" transform="translate(159.033203 0)"/>
    <use xlink:href="#DejaVuSans-69" transform="translate(222.412109 0)"/>
    <use xlink:href="#DejaVuSans-73" transform="translate(250.195312 0)"/>
    <use xlink:href="#DejaVuSans-74" transform="translate(302.294922 0)"/>
    <use xlink:href="#DejaVuSans-6f" transform="translate(341.503906 0)"/>
    <use xlink:href="#DejaVuSans-72" transform="translate(402.685547 0)"/>
    <use xlink:href="#DejaVuSans-69" transform="translate(443.798828 0)"/>
    <use xlink:href="#DejaVuSans-63" transform="translate(471.582031 0)"/>
    <use xlink:href="#DejaVuSans-61" transform="translate(526.5625 0)"/>
    <use xlink:href="#DejaVuSans-6c" transform="translate(587.841797 0)"/>
    <use xlink:href="#DejaVuSans-20" transform="translate(615.625 0)"/>
    <use xlink:href="#DejaVuSans-69" transform="translate(647.412109 0)"/>
    <use xlink:href="#DejaVuSans-73" transform="translate(675.195312 0)"/>
    <use xlink:href="#DejaVuSans-73" transform="translate(727.294922 0)"/>
    <use xlink:href="#DejaVuSans-75" transform="translate(779.394531 0)"/>
    <use xlink:href="#DejaVuSans-65" transform="translate(842.773438 0)"/>
    <use xlink:href="#DejaVuSans-73" transform="translate(904.296875 0)"/>
    <use xlink:href="#DejaVuSans-20" transform="translate(956.396484 0)"/>
    <use xlink:href="#DejaVuSans-b7" transform="translate(988.183594 0)"/>
    <use xlink:href="#DejaVuSans-20" transform="translate(1019.970703 0)"/>
    <use xlink:href="#DejaVuSans-6f" transform="translate(1051.757812 0)"/>
    <use xlink:href="#DejaVuSans-6e" transform="translate(1112.939453 0)"/>
    <use xlink:href="#DejaVuSans-65" transform="translate(1176.318359 0)"/>
    <use xlink:href="#DejaVuSans-20" transform="translate(1237.841797 0)"/>
    <use xlink:href="#DejaVuSans-6d" transform="translate(1269.628906 0)"/>
    <use xlink:href="#DejaVuSans-6f" transform="translate(1367.041016 0)"/>
    <use xlink:href="#DejaVuSans-64" transform="translate(1428.222656 0)"/>
    <use xlink:href="#DejaVuSans-65" transform="translate(1491.699219 0)"/>
    <use xlink:href="#DejaVuSans-6c" transform="translate(1553.222656 0)"/>
    <use xlink:href="#DejaVuSans-20" transform="translate(1581.005859 0)"/>
    <use xlink:href="#DejaVuSans-b7" transform="translate(1612.792969 0)"/>
    <use xlink:href="#DejaVuSans-20" transform="translate(1644.580078 0)"/>
    <use xlink:href="#DejaVuSans-66" transform="translate(1676.367188 0)"/>
    <use xlink:href="#DejaVuSans-69" transform="translate(1711.572266 0)"/>
    <use xlink:href="#DejaVuSans-76" transform="translate(1739.355469 0)"/>
    <use xlink:href="#DejaVuSans-65" transform="translate(1798.535156 0)"/>
    <use xlink:href="#DejaVuSans-2d" transform="translate(1860.058594 0)"/>
    <use xlink:href="#DejaVuSans-6d" transform="translate(1896.142578 0)"/>
    <use xlink:href="#DejaVuSans-69" transform="translate(1993.554688 0)"/>
    <use xlink:href="#DejaVuSans-6e" transform="translate(2021.337891 0)"/>
    <use xlink:href="#DejaVuSans-75" transform="translate(2084.716797 0)"/>
    <use xlink:href="#DejaVuSans-74" transform="translate(2148.095703 0)"/>
    <use xlink:href="#DejaVuSans-65" transform="translate(2187.304688 0)"/>
    <use xlink:href="#DejaVuSans-20" transform="translate(2248.828125 0)"/>
    <use xlink:href="#DejaVuSans-63" transform="translate(2280.615234 0)"/>
    <use xlink:href="#DejaVuSans-61" transform="translate(2335.595703 0)"/>
    <use xlink:href="#DejaVuSans-70" transform="translate(2396.875 0)"/>
    <use xlink:href="#DejaVuSans-2e" transform="translate(2460.351562 0)"/>
    <use xlink:href="#DejaVuSans-20" transform="translate(2492.138672 0)"/>
    <use xlink:href="#DejaVuSans-52" transform="translate(2523.925781 0)"/>
    <use xlink:href="#DejaVuSans-65" transform="translate(2588.908203 0)"/>
    <use xlink:href="#DejaVuSans-73" transform="translate(2650.431641 0)"/>
    <use xlink:href="#DejaVuSans-75" transform="translate(2702.53125 0)"/>
    <use xlink:href="#DejaVuSans-6c" transform="translate(2765.910156 0)"/>
    <use xlink:href="#DejaVuSans-74" transform="translate(2793.693359 0)"/>
    <use xlink:href="#DejaVuSans-73" transform="translate(2832.902344 0)"/>
    <use xlink:href="#DejaVuSans-20" transform="translate(2885.001953 0)"/>
    <use xlink:href="#DejaVuSans-64" transform="translate(2916.789062 0)"/>
    <use xlink:href="#DejaVuSans-65" transform="translate(2980.265625 0)"/>
    <use xlink:href="#DejaVuSans-73" transform="translate(3041.789062 0)"/>
    <use xlink:href="#DejaVuSans-63" transform="translate(3093.888672 0)"/>
    <use xlink:href="#DejaVuSans-72" transform="translate(3148.869141 0)"/>
    <use xlink:href="#DejaVuSans-69" transform="translate(3189.982422 0)"/>
    <use xlink:href="#DejaVuSans-62" transform="translate(3217.765625 0)"/>
    <use xlink:href="#DejaVuSans-65" transform="translate(3281.242188 0)"/>
    <use xlink:href="#DejaVuSans-20" transform="translate(3342.765625 0)"/>
    <use xlink:href="#DejaVuSans-74" transform="translate(3374.552734 0)"/>
    <use xlink:href="#DejaVuSans-68" transform="translate(3413.761719 0)"/>
    <use xlink:href="#DejaVuSans-69" transform="translate(3477.140625 0)"/>
    <use xlink:href="#DejaVuSans-73" transform="translate(3504.923828 0)"/>
    <use xlink:href="#DejaVuSans-20" transform="translate(3557.023438 0)"/>
    <use xlink:href="#DejaVuSans-73" transform="translate(3588.810547 0)"/>
    <use xlink:href="#DejaVuSans-65" transform="translate(3640.910156 0)"/>
    <use xlink:href="#DejaVuSans-6c" transform="translate(3702.433594 0)"/>
    <use xlink:href="#DejaVuSans-65" transform="translate(3730.216797 0)"/>
    <use xlink:href="#DejaVuSans-63" transform="translate(3791.740234 0)"/>
    <use xlink:href="#DejaVuSans-74" transform="translate(3846.720703 0)"/>
    <use xlink:href="#DejaVuSans-65" transform="translate(3885.929688 0)"/>
    <use xlink:href="#DejaVuSans-64" transform="translate(3947.453125 0)"/>
    <use xlink:href="#DejaVuSans-20" transform="translate(4010.929688 0)"/>
    <use xlink:href="#DejaVuSans-70" transform="translate(4042.716797 0)"/>
    <use xlink:href="#DejaVuSans-69" transform="translate(4106.193359 0)"/>
    <use xlink:href="#DejaVuSans-6c" transform="translate(4133.976562 0)"/>
    <use xlink:href="#DejaVuSans-6f" transform="translate(4161.759766 0)"/>
    <use xlink:href="#DejaVuSans-74" transform="translate(4222.941406 0)"/>
    <use xlink:href="#DejaVuSans-2e" transform="translate(4262.150391 0)"/>
   </g>
  </g>
  <g id="text_24">
   <!-- ADAM SMITH / @TOKENSMAX -->
   <g style="fill: #88b2ff" transform="translate(51.84 614.304) scale(0.13 -0.13)">
    <defs>
     <path id="DejaVuSans-Bold-4d" d="M 588 4666 
L 2119 4666 
L 3181 2169 
L 4250 4666 
L 5778 4666 
L 5778 0 
L 4641 0 
L 4641 3413 
L 3566 897 
L 2803 897 
L 1728 3413 
L 1728 0 
L 588 0 
L 588 4666 
z
" transform="scale(0.015625)"/>
     <path id="DejaVuSans-Bold-48" d="M 588 4666 
L 1791 4666 
L 1791 2888 
L 3566 2888 
L 3566 4666 
L 4769 4666 
L 4769 0 
L 3566 0 
L 3566 1978 
L 1791 1978 
L 1791 0 
L 588 0 
L 588 4666 
z
" transform="scale(0.015625)"/>
     <path id="DejaVuSans-Bold-40" d="M 2597 1684 
Q 2597 1300 2761 1078 
Q 2925 856 3206 856 
Q 3484 856 3650 1079 
Q 3816 1303 3816 1684 
Q 3816 2063 3648 2283 
Q 3481 2503 3200 2503 
Q 2925 2503 2761 2283 
Q 2597 2063 2597 1684 
z
M 3878 744 
Q 3784 522 3576 398 
Q 3369 275 3091 275 
Q 2553 275 2217 664 
Q 1881 1053 1881 1678 
Q 1881 2303 2218 2693 
Q 2556 3084 3091 3084 
Q 3369 3084 3576 2959 
Q 3784 2834 3878 2613 
L 3878 3022 
L 4531 3022 
L 4531 856 
Q 4919 916 5141 1230 
Q 5363 1544 5363 2034 
Q 5363 2347 5272 2620 
Q 5181 2894 4997 3122 
Q 4700 3503 4254 3709 
Q 3809 3916 3291 3916 
Q 2928 3916 2597 3820 
Q 2266 3725 1984 3541 
Q 1522 3234 1264 2748 
Q 1006 2263 1006 1697 
Q 1006 1231 1173 823 
Q 1341 416 1656 103 
Q 1969 -203 2373 -364 
Q 2778 -525 3238 -525 
Q 3631 -525 4025 -378 
Q 4419 -231 4697 19 
L 5031 -488 
Q 4641 -791 4180 -952 
Q 3719 -1113 3244 -1113 
Q 2666 -1113 2153 -908 
Q 1641 -703 1241 -313 
Q 841 78 631 592 
Q 422 1106 422 1697 
Q 422 2266 634 2781 
Q 847 3297 1241 3688 
Q 1634 4075 2157 4287 
Q 2681 4500 3244 4500 
Q 3944 4500 4516 4233 
Q 5088 3966 5472 3463 
Q 5706 3156 5826 2798 
Q 5947 2441 5947 2047 
Q 5947 1200 5437 731 
Q 4928 263 4000 263 
L 3878 263 
L 3878 744 
z
" transform="scale(0.015625)"/>
     <path id="DejaVuSans-Bold-4b" d="M 588 4666 
L 1791 4666 
L 1791 2963 
L 3525 4666 
L 4922 4666 
L 2675 2456 
L 5153 0 
L 3647 0 
L 1791 1838 
L 1791 0 
L 588 0 
L 588 4666 
z
" transform="scale(0.015625)"/>
     <path id="DejaVuSans-Bold-58" d="M 3188 2381 
L 4806 0 
L 3553 0 
L 2463 1594 
L 1381 0 
L 122 0 
L 1741 2381 
L 184 4666 
L 1441 4666 
L 2463 3163 
L 3481 4666 
L 4744 4666 
L 3188 2381 
z
" transform="scale(0.015625)"/>
    </defs>
    <use xlink:href="#DejaVuSans-Bold-41"/>
    <use xlink:href="#DejaVuSans-Bold-44" transform="translate(77.392578 0)"/>
    <use xlink:href="#DejaVuSans-Bold-41" transform="translate(160.400391 0)"/>
    <use xlink:href="#DejaVuSans-Bold-4d" transform="translate(237.792969 0)"/>
    <use xlink:href="#DejaVuSans-Bold-20" transform="translate(337.304688 0)"/>
    <use xlink:href="#DejaVuSans-Bold-53" transform="translate(372.119141 0)"/>
    <use xlink:href="#DejaVuSans-Bold-4d" transform="translate(444.140625 0)"/>
    <use xlink:href="#DejaVuSans-Bold-49" transform="translate(543.652344 0)"/>
    <use xlink:href="#DejaVuSans-Bold-54" transform="translate(580.859375 0)"/>
    <use xlink:href="#DejaVuSans-Bold-48" transform="translate(649.072266 0)"/>
    <use xlink:href="#DejaVuSans-Bold-20" transform="translate(732.763672 0)"/>
    <use xlink:href="#DejaVuSans-Bold-2f" transform="translate(767.578125 0)"/>
    <use xlink:href="#DejaVuSans-Bold-20" transform="translate(804.101562 0)"/>
    <use xlink:href="#DejaVuSans-Bold-40" transform="translate(838.916016 0)"/>
    <use xlink:href="#DejaVuSans-Bold-54" transform="translate(938.916016 0)"/>
    <use xlink:href="#DejaVuSans-Bold-4f" transform="translate(1007.128906 0)"/>
    <use xlink:href="#DejaVuSans-Bold-4b" transform="translate(1092.138672 0)"/>
    <use xlink:href="#DejaVuSans-Bold-45" transform="translate(1169.628906 0)"/>
    <use xlink:href="#DejaVuSans-Bold-4e" transform="translate(1237.939453 0)"/>
    <use xlink:href="#DejaVuSans-Bold-53" transform="translate(1321.630859 0)"/>
    <use xlink:href="#DejaVuSans-Bold-4d" transform="translate(1393.652344 0)"/>
    <use xlink:href="#DejaVuSans-Bold-41" transform="translate(1493.164062 0)"/>
    <use xlink:href="#DejaVuSans-Bold-58" transform="translate(1570.556641 0)"/>
   </g>
  </g>
  <g id="text_25">
   <!-- adamruns.com/user-confidence.html -->
   <g style="fill: #f3f5ff" transform="translate(668.16 614.304) scale(0.16 -0.16)">
    <defs>
     <path id="DejaVuSans-2f" d="M 1625 4666 
L 2156 4666 
L 531 -594 
L 0 -594 
L 1625 4666 
z
" transform="scale(0.015625)"/>
    </defs>
    <use xlink:href="#DejaVuSans-61"/>
    <use xlink:href="#DejaVuSans-64" transform="translate(61.279297 0)"/>
    <use xlink:href="#DejaVuSans-61" transform="translate(124.755859 0)"/>
    <use xlink:href="#DejaVuSans-6d" transform="translate(186.035156 0)"/>
    <use xlink:href="#DejaVuSans-72" transform="translate(283.447266 0)"/>
    <use xlink:href="#DejaVuSans-75" transform="translate(324.560547 0)"/>
    <use xlink:href="#DejaVuSans-6e" transform="translate(387.939453 0)"/>
    <use xlink:href="#DejaVuSans-73" transform="translate(451.318359 0)"/>
    <use xlink:href="#DejaVuSans-2e" transform="translate(503.417969 0)"/>
    <use xlink:href="#DejaVuSans-63" transform="translate(535.205078 0)"/>
    <use xlink:href="#DejaVuSans-6f" transform="translate(590.185547 0)"/>
    <use xlink:href="#DejaVuSans-6d" transform="translate(651.367188 0)"/>
    <use xlink:href="#DejaVuSans-2f" transform="translate(748.779297 0)"/>
    <use xlink:href="#DejaVuSans-75" transform="translate(782.470703 0)"/>
    <use xlink:href="#DejaVuSans-73" transform="translate(845.849609 0)"/>
    <use xlink:href="#DejaVuSans-65" transform="translate(897.949219 0)"/>
    <use xlink:href="#DejaVuSans-72" transform="translate(959.472656 0)"/>
    <use xlink:href="#DejaVuSans-2d" transform="translate(994.210938 0)"/>
    <use xlink:href="#DejaVuSans-63" transform="translate(1030.294922 0)"/>
    <use xlink:href="#DejaVuSans-6f" transform="translate(1085.275391 0)"/>
    <use xlink:href="#DejaVuSans-6e" transform="translate(1146.457031 0)"/>
    <use xlink:href="#DejaVuSans-66" transform="translate(1209.835938 0)"/>
    <use xlink:href="#DejaVuSans-69" transform="translate(1245.041016 0)"/>
    <use xlink:href="#DejaVuSans-64" transform="translate(1272.824219 0)"/>
    <use xlink:href="#DejaVuSans-65" transform="translate(1336.300781 0)"/>
    <use xlink:href="#DejaVuSans-6e" transform="translate(1397.824219 0)"/>
    <use xlink:href="#DejaVuSans-63" transform="translate(1461.203125 0)"/>
    <use xlink:href="#DejaVuSans-65" transform="translate(1516.183594 0)"/>
    <use xlink:href="#DejaVuSans-2e" transform="translate(1577.707031 0)"/>
    <use xlink:href="#DejaVuSans-68" transform="translate(1609.494141 0)"/>
    <use xlink:href="#DejaVuSans-74" transform="translate(1672.873047 0)"/>
    <use xlink:href="#DejaVuSans-6d" transform="translate(1712.082031 0)"/>
    <use xlink:href="#DejaVuSans-6c" transform="translate(1809.494141 0)"/>
   </g>
  </g>
 </g>
 <defs>
  <clipPath id="pdc9f555fee">
   <rect x="351.36" y="149.04" width="737.28" height="304.56"/>
  </clipPath>
 </defs>
</svg>
